<svg width="110" height="103" viewBox="0 0 110 103" fill="none" xmlns="http://www.w3.org/2000/svg">
<ellipse cx="54.5453" cy="51.5" rx="28.8204" ry="46.714" transform="rotate(51.912 54.5453 51.5)" fill="#FBF6EF"/>
<path d="M70.2504 43.7065C70.9279 42.7137 71.6117 41.7209 72.2955 40.728C73.3118 39.2574 74.3595 37.7371 75.3696 36.2231C78.1864 31.9973 79.9869 28.5907 81.2165 25.1778C82.0069 22.9874 82.1952 21.1444 81.7999 19.5435C81.48 18.2528 80.7209 17.3592 79.7108 17.0862C78.5189 16.7635 77.1073 17.353 75.7271 18.7492C74.3093 20.1826 73.0923 21.796 72.101 23.5458C70.0935 27.0952 68.5251 31.11 67.3143 35.8197C66.8125 37.762 66.3984 39.7228 65.9969 41.6278C65.7961 42.5958 65.5891 43.5638 65.3758 44.5318C65.3194 44.7862 65.2127 45.0407 65.0998 45.202C63.7071 47.1753 61.8062 49.6449 59.4473 52.549C54.7987 58.0282 50.7648 62.1857 46.7497 65.6295C43.2993 68.5894 41.4925 70.0849 38.017 71.8285C34.5791 73.5536 31.4235 73.5412 29.1337 71.7913C28.0546 70.9598 25.8024 68.2543 27.3771 62.862C28.362 59.505 32.1261 57.811 30.9592 55.968C29.7924 54.1313 21.5929 56.6258 18.155 65.8715C15.5326 72.9269 17.8099 77.8724 20.6644 80.7268C22.4523 82.5139 30.2754 86.4418 42.7221 76.3956C53.958 67.3298 62.5025 55.3351 64.096 52.2449C64.1901 52.065 64.278 51.8974 64.3532 51.7547C64.347 51.8726 64.3344 51.9905 64.3281 52.1208C64.096 55.1427 63.6067 61.4224 65.4574 66.0391C66.1475 67.7579 67.2202 69.8305 69.416 70.5813C70.426 70.9288 71.6619 71.1646 73.1424 70.3021C74.2842 69.6381 75.0245 68.819 75.4762 67.7331C75.6017 67.4353 75.9718 66.5355 75.1688 66.1198C74.9241 65.9957 74.6356 65.9088 74.2529 65.8529C74.0521 65.8219 73.8388 65.8095 73.6381 65.7971C73.3432 65.7785 73.0672 65.7661 72.81 65.6978C71.1036 65.2386 68.8388 63.5694 68.82 54.454C68.8137 51.4072 69.1525 48.1743 69.8614 44.5629C69.9367 44.296 70.081 43.9548 70.2504 43.7065ZM71.2855 35.8756C71.7184 34.5228 72.1638 33.1267 72.6594 31.7677C73.5063 29.447 74.4536 27.1262 75.2692 25.1592C75.5076 24.5883 75.8401 24.0298 76.1663 23.4838C76.2667 23.3162 76.367 23.1487 76.4611 22.9811C76.5866 22.7702 76.756 22.5406 76.9756 22.3172C77.2265 22.0504 77.4085 21.9573 77.5026 21.9573C77.5151 21.9573 77.5276 21.9573 77.5402 21.9635C77.6217 21.9883 77.6845 22.1372 77.7159 22.3544C77.8664 23.4155 77.4586 24.5697 76.9881 25.6556C75.1688 29.9 72.8539 33.8216 70.9655 36.8498C71.0785 36.5271 71.1851 36.1982 71.2855 35.8756Z" fill="#3521C1"/>
</svg>
