<svg width="72" height="98" viewBox="0 0 72 98" fill="none" xmlns="http://www.w3.org/2000/svg">
    <path
        d="M72 36.0494C72 55.9589 36 97.3333 36 97.3333C36 97.3333 0 55.9589 0 36.0494C0 16.1399 16.1177 0 36 0C55.8823 0 72 16.1399 72 36.0494Z"
        fill="#3521C1" />
    <g clip-path="url(#clip0)">
        <path
            d="M39.5998 41.4442H38.8928V42.7602H38.6138V41.1836H39.8815V42.7602H39.5998V41.4442ZM40.5219 42.7599V41.1859C40.6096 41.1859 40.862 41.1807 40.9736 41.1807C41.4414 41.1807 41.5902 41.4281 41.5902 41.686C41.5902 41.9545 41.3882 42.1966 41.0082 42.1966C40.9604 42.1966 40.87 42.1966 40.8009 42.1887V42.7573H40.5219V42.7599ZM40.8036 41.4439V41.9282C40.87 41.9361 40.9364 41.9387 41.0002 41.9387C41.165 41.9387 41.2952 41.8597 41.2952 41.6834C41.2952 41.5202 41.1942 41.4386 41.0029 41.4386C40.9444 41.4386 40.878 41.4412 40.8036 41.4439ZM42.8129 41.1592C43.2859 41.1592 43.642 41.4803 43.642 41.9725C43.642 42.4463 43.2859 42.7858 42.8129 42.7858C42.3398 42.7858 41.9863 42.4647 41.9863 41.9725C41.9863 41.5145 42.3238 41.1592 42.8129 41.1592ZM42.8129 42.5252C43.1477 42.5252 43.347 42.2831 43.347 41.9725C43.347 41.6461 43.1132 41.4198 42.8129 41.4198C42.5072 41.4198 42.2813 41.6461 42.2813 41.9725C42.2813 42.2857 42.5152 42.5252 42.8129 42.5252ZM43.913 42.4996H44.0831C44.1495 42.418 44.301 42.0864 44.3276 41.4994L44.3435 41.1836H45.3295V42.4996H45.5448V43.0392H45.2843V42.7576H44.1734V43.0392H43.913V42.4996ZM44.3913 42.4996H45.0558V41.4415H44.6172L44.5933 41.7153C44.5614 42.1232 44.4472 42.4312 44.3913 42.4996ZM46.693 42.3914C46.584 42.6309 46.4591 42.7573 46.2624 42.7573C46.18 42.7573 46.087 42.7283 46.0445 42.6941L46.1428 42.4599C46.1854 42.4888 46.2146 42.4993 46.2598 42.4993C46.3342 42.4993 46.3847 42.4572 46.4166 42.3888L46.4378 42.3335L45.7362 41.1807H46.0525L46.5734 42.0598L46.9534 41.1807H47.2351L46.693 42.3914ZM47.6842 41.1836H47.9633V41.9311L48.5905 41.1836H48.928L48.2715 41.9179L48.9679 42.7602H48.6144L47.9633 41.9469V42.7602H47.6842V41.1836ZM49.2021 41.1836H50.5124V41.4442H49.9968V42.7602H49.7177V41.4442H49.2021V41.1836ZM34.5498 31.3262C34.8369 30.9051 35.1265 30.4839 35.4162 30.0628C35.8468 29.439 36.2906 28.7942 36.7185 28.1519C37.9118 26.3595 38.6745 24.9145 39.1954 23.4668C39.5303 22.5377 39.61 21.756 39.4426 21.0769C39.307 20.5294 38.9855 20.1504 38.5576 20.0346C38.0526 19.8977 37.4546 20.1478 36.87 20.74C36.2693 21.348 35.7537 22.0324 35.3338 22.7746C34.4834 24.2801 33.819 25.9831 33.306 27.9808C33.0934 28.8047 32.918 29.6364 32.7479 30.4445C32.6629 30.8551 32.5752 31.2657 32.4848 31.6763C32.4609 31.7842 32.4157 31.8921 32.3679 31.9605C31.7779 32.7975 30.9726 33.8451 29.9733 35.0769C28.004 37.401 26.2951 39.1645 24.5942 40.6253C23.1325 41.8808 22.3671 42.5152 20.8948 43.2548C19.4384 43.9865 18.1016 43.9812 17.1315 43.239C16.6744 42.8863 15.7203 41.7387 16.3874 39.4514C16.8046 38.0275 18.3992 37.3089 17.9049 36.5272C17.4106 35.7481 13.937 36.8062 12.4806 40.728C11.3697 43.7206 12.3344 45.8184 13.5437 47.0292C14.3011 47.7872 17.6152 49.4533 22.888 45.192C27.6479 41.3465 31.2676 36.2587 31.9427 34.9479C31.9825 34.8716 32.0197 34.8005 32.0516 34.74C32.049 34.79 32.0437 34.84 32.041 34.8953C31.9427 36.1771 31.7354 38.8408 32.5194 40.799C32.8117 41.5281 33.2662 42.4072 34.1964 42.7257C34.6242 42.8731 35.1478 42.9731 35.775 42.6073C36.2587 42.3256 36.5723 41.9782 36.7637 41.5176C36.8168 41.3913 36.9736 41.0096 36.6334 40.8333C36.5298 40.7806 36.4075 40.7438 36.2454 40.7201C36.1604 40.7069 36.07 40.7017 35.985 40.6964C35.8601 40.6885 35.7431 40.6832 35.6342 40.6543C34.9113 40.4595 33.9519 39.7515 33.9439 35.885C33.9412 34.5926 34.0847 33.2213 34.3851 31.6894C34.4169 31.5763 34.4781 31.4315 34.5498 31.3262ZM34.9883 28.0045C35.1717 27.4307 35.3604 26.8385 35.5704 26.2621C35.9292 25.2777 36.3305 24.2933 36.676 23.4589C36.7769 23.2168 36.9178 22.9799 37.056 22.7483C37.0985 22.6772 37.141 22.6061 37.1809 22.5351C37.2341 22.4456 37.3058 22.3482 37.3988 22.2534C37.5051 22.1403 37.5822 22.1008 37.6221 22.1008C37.6274 22.1008 37.6327 22.1008 37.638 22.1034C37.6726 22.1139 37.6992 22.1771 37.7124 22.2692C37.7762 22.7193 37.6035 23.2089 37.4042 23.6695C36.6334 25.4698 35.6528 27.1333 34.8528 28.4178C34.9006 28.2809 34.9458 28.1414 34.9883 28.0045ZM58.9846 30.6279C57.879 30.42 58.7587 32.9336 55.2719 34.7181C54.7669 34.9761 53.5417 35.5025 51.9232 35.2577C50.4296 35.0314 49.6802 34.0549 49.6802 34.0549C49.7227 33.939 49.8688 33.7232 49.93 33.5942C50.0124 33.4179 50.1001 33.2389 50.1426 33.0836C50.3074 32.4835 50.3153 31.9887 50.1665 31.4728C50.0469 31.0596 49.7014 30.8069 49.3479 30.8727C49.2815 30.8858 49.2177 30.9095 49.1566 30.9437C48.54 31.2885 48.0909 32.0334 47.9819 32.8889C47.9261 33.3231 47.9341 33.7469 48.0085 34.1812C48.0218 34.2628 48.0138 34.3523 48.0058 34.4155L48.0032 34.4312L47.9952 34.447C47.6125 35.0814 47.1447 35.8078 46.5654 36.3711C46.3714 36.558 46.1136 36.7817 45.8319 36.8343C45.7734 36.8449 45.7123 36.8475 45.6538 36.8449C45.404 36.8264 45.2631 36.7264 45.2711 36.2684C45.2738 36.15 45.2897 36.0263 45.3056 35.9078C45.3801 35.3841 45.5688 34.8524 45.8797 34.2865C46.0551 33.968 46.2491 33.6627 46.4538 33.3837L46.4724 33.3416L46.5122 33.2916C46.8179 32.902 47.1261 32.5151 47.4371 32.1282C47.8756 31.5781 48.3752 30.9543 48.843 30.3463C50.124 28.6828 50.9638 27.3246 51.5644 25.9402C51.9418 25.0742 52.0667 24.3293 51.9524 23.6687C51.878 23.2476 51.6947 22.9238 51.4209 22.7369C51.1977 22.5843 50.9239 22.5316 50.6342 22.5843C50.3074 22.6448 49.9592 22.8343 49.6004 23.1502C48.9706 23.7003 48.4417 24.3083 47.9819 25.0032C47.0544 26.4113 46.297 28.0353 45.6671 29.9672C45.4066 30.7648 45.1807 31.5754 44.9628 32.3624C44.8512 32.7651 44.7396 33.1678 44.6226 33.5679C44.6173 33.5837 44.3941 34.347 44.3914 34.347C44.3728 34.3865 44.3569 34.426 44.3329 34.476L44.2931 34.5655C44.0645 34.9234 43.7908 35.3472 43.6845 35.4841C43.2034 36.1079 42.6055 36.887 41.8879 37.3371C41.7763 37.4055 41.662 37.4529 41.5583 37.4739C41.4175 37.5002 41.2979 37.4792 41.2049 37.4081C41.0826 37.3186 41.0082 37.1475 40.9869 36.9186C40.9657 36.6948 40.9604 36.3606 41.0428 36.0552C41.1517 35.6604 41.2793 35.2709 41.4069 34.8919C41.4281 34.8234 41.452 34.7576 41.476 34.6892C41.5318 34.526 41.5902 34.3575 41.6354 34.1891C41.7231 33.8548 41.5902 33.5179 41.3298 33.4047C41.0481 33.2837 40.7132 33.4679 40.4395 33.8943C40.3278 34.0707 40.195 34.3181 40.0541 34.5786C39.9372 34.7997 39.8123 35.0261 39.6953 35.2235C39.2781 35.9263 38.7811 36.729 38.1459 37.345C37.9519 37.5345 37.6941 37.7556 37.4124 37.8082C37.3539 37.8187 37.2928 37.8214 37.2343 37.8187C36.9845 37.8003 36.8437 37.7003 36.8516 37.2423C36.8543 37.1239 36.8702 37.0001 36.8862 36.8817C36.9606 36.3579 37.1493 35.8262 37.4602 35.2603C38.3213 33.6995 39.294 32.8362 40.4421 32.6204C40.4846 32.6125 40.5298 32.6046 40.575 32.5993C41.0242 32.5362 41.5371 32.5388 41.9012 33.0283C41.965 33.1152 42.0394 33.1521 42.1191 33.1363C42.1802 33.1257 42.244 33.0836 42.3131 33.0099C42.4433 32.8731 42.8712 31.9703 42.6719 31.2412C42.555 30.8174 42.2547 30.5305 41.7789 30.391C41.2687 30.2436 40.1684 30.2199 38.4941 31.7386C37.3114 32.8125 36.158 34.6129 35.552 36.3237C35.2517 37.1739 35.156 37.8951 35.2597 38.5268C35.3554 39.1058 35.5573 39.5033 35.8603 39.7138C36.0171 39.8217 36.1952 39.877 36.3945 39.877C36.4663 39.877 36.5407 39.8691 36.6204 39.856C36.7134 39.8375 36.8091 39.8112 36.9048 39.7744C37.6463 39.4927 38.3293 38.8979 38.9964 37.953C39.0283 37.9082 39.0628 37.8766 39.1027 37.8398C39.1133 37.8293 39.1266 37.8187 39.1372 37.8082L39.1638 37.7792L39.1718 37.8108C39.1771 37.8293 39.1824 37.8477 39.1904 37.8687C39.2063 37.9135 39.2223 37.9635 39.2223 38.0214C39.2196 38.4109 39.3073 38.7478 39.488 39.019C39.791 39.4769 40.2162 39.6454 40.7903 39.5375C40.9232 39.5138 41.064 39.4743 41.2208 39.4164C41.8321 39.1953 42.4619 38.7321 43.1476 37.9951C43.3124 37.8187 43.4772 37.6213 43.6207 37.4265L43.6579 37.3792L43.6712 37.4792C43.6738 37.5029 43.6765 37.5292 43.6792 37.5529C43.7748 38.1293 43.9768 38.5294 44.2798 38.74C44.4924 38.8873 44.7502 38.9347 45.0399 38.8821C45.1329 38.8637 45.2286 38.8373 45.3242 38.8005C46.0524 38.5241 46.8923 37.8924 47.6231 37.0686C47.8995 36.7554 48.447 35.8631 48.9759 35.0261C49.3161 35.3604 51.0462 37.1265 53.749 37.1923C55.7848 37.2423 57.9986 36.3448 58.958 35.1419C60.5952 33.0968 60.061 30.949 58.9846 30.6279ZM47.3733 30.1041C47.461 29.8857 47.5461 29.6672 47.6311 29.4487L47.6364 29.4356C47.8251 28.9539 48.0191 28.4564 48.2344 27.9721C48.5958 27.1483 48.9998 26.3192 49.3453 25.6164C49.4489 25.4032 49.5871 25.2032 49.7227 25.011L49.736 24.9926C49.7705 24.9426 49.8051 24.89 49.8423 24.84C49.8981 24.7557 49.9751 24.6715 50.0655 24.5873C50.1506 24.511 50.2303 24.4636 50.2914 24.4504C50.3153 24.4452 50.3579 24.4452 50.3951 24.4715C50.4402 24.5057 50.4695 24.582 50.4774 24.6899C50.5093 25.1216 50.3233 25.5559 50.1187 25.9586C49.3054 27.5589 48.3008 29.0039 47.5168 30.0831C47.4982 30.1067 47.477 30.1278 47.4557 30.1462L47.4185 30.1831L47.3547 30.1541L47.3733 30.1041Z"
            fill="white" />
    </g>
    <defs>
        <clipPath id="clip0">
            <rect width="48" height="28" fill="white" transform="translate(12 20)" />
        </clipPath>
    </defs>
</svg>