<svg viewBox="0 0 146 95" fill="none" xmlns="http://www.w3.org/2000/svg">
    <path
        d="M78.5831 81.8954H23.046C21.3641 81.8954 20 80.5452 20 78.8804C20 72.5181 20 62 20 62L24 66L39 51.5C39 51.5 20 31.687 20 31.0149C20 29.3502 21.3641 28 23.046 28H78.5831C80.265 28 81.6291 29.3502 81.6291 31.0149V78.8804C81.6291 80.5463 80.265 81.8954 78.5831 81.8954Z"
        fill="#FBE3C9" />
    <path
        d="M57.4813 53.1163C57.7419 52.7402 58.0049 52.3641 58.2679 51.9881C58.6588 51.431 59.0617 50.8551 59.4502 50.2816C60.5336 48.6809 61.2262 47.3905 61.6991 46.0977C62.0031 45.268 62.0755 44.5699 61.9235 43.9634C61.8004 43.4745 61.5085 43.1361 61.12 43.0327C60.6615 42.9104 60.1186 43.1337 59.5878 43.6626C59.0424 44.2056 58.5743 44.8167 58.1931 45.4795C57.4209 46.824 56.8177 48.3448 56.352 50.1288C56.159 50.8645 55.9997 51.6073 55.8453 52.3289C55.7681 52.6956 55.6885 53.0622 55.6064 53.4289C55.5847 53.5253 55.5437 53.6217 55.5002 53.6828C54.9646 54.4302 54.2335 55.3657 53.3262 56.4658C51.5382 58.5412 49.9867 60.1161 48.4424 61.4206C47.1153 62.5418 46.4204 63.1083 45.0836 63.7688C43.7613 64.4222 42.5476 64.4175 41.6669 63.7547C41.2518 63.4397 40.3856 62.4149 40.9913 60.3723C41.3701 59.1007 42.8178 58.459 42.369 57.7609C41.9202 57.0651 38.7665 58.01 37.4442 61.5123C36.4356 64.1848 37.3115 66.0581 38.4094 67.1394C39.0971 67.8163 42.106 69.3042 46.8933 65.4987C51.2149 62.0646 54.5013 57.5211 55.1142 56.3506C55.1504 56.2824 55.1842 56.219 55.2131 56.1649C55.2107 56.2096 55.2059 56.2542 55.2035 56.3036C55.1142 57.4483 54.926 59.827 55.6378 61.5757C55.9032 62.2268 56.3158 63.0119 57.1603 63.2963C57.5488 63.4279 58.0242 63.5173 58.5936 63.1905C59.0328 62.939 59.3175 62.6288 59.4912 62.2174C59.5395 62.1046 59.6819 61.7638 59.373 61.6063C59.2789 61.5593 59.1679 61.5264 59.0207 61.5052C58.9435 61.4935 58.8615 61.4888 58.7843 61.4841C58.6708 61.477 58.5647 61.4723 58.4657 61.4465C57.8094 61.2725 56.9384 60.6402 56.9311 57.1874C56.9287 56.0333 57.059 54.8087 57.3317 53.4407C57.3606 53.3396 57.4161 53.2103 57.4813 53.1163ZM57.8794 50.15C58.0459 49.6376 58.2172 49.1087 58.4078 48.5939C58.7336 47.7148 59.0979 46.8358 59.4116 46.0907C59.5033 45.8744 59.6312 45.6629 59.7567 45.456C59.7953 45.3926 59.8339 45.3291 59.8701 45.2656C59.9183 45.1857 59.9835 45.0987 60.0679 45.0141C60.1645 44.9131 60.2344 44.8778 60.2706 44.8778C60.2755 44.8778 60.2803 44.8778 60.2851 44.8801C60.3165 44.8895 60.3406 44.946 60.3527 45.0282C60.4106 45.4302 60.2537 45.8674 60.0728 46.2787C59.373 47.8864 58.4826 49.3719 57.7563 50.519C57.7998 50.3968 57.8408 50.2722 57.8794 50.15Z"
        fill="#3521C1" />
    <path
        d="M78.4437 53.1156C77.4998 52.9539 78.2508 54.9085 75.2739 56.2961C74.8428 56.4967 73.7969 56.906 72.4151 56.7156C71.1399 56.5396 70.5001 55.7803 70.5001 55.7803C70.5364 55.6903 70.6612 55.5225 70.7134 55.4222C70.7837 55.2851 70.8586 55.1459 70.8949 55.0251C71.0355 54.5585 71.0423 54.1737 70.9153 53.7726C70.8132 53.4513 70.5182 53.2548 70.2164 53.306C70.1597 53.3162 70.1053 53.3346 70.0531 53.3612C69.5267 53.6293 69.1432 54.2085 69.0502 54.8737C69.0026 55.2114 69.0094 55.5409 69.0729 55.8786C69.0842 55.942 69.0774 56.0116 69.0706 56.0607L69.0684 56.073L69.0616 56.0853C68.7348 56.5785 68.3355 57.1434 67.8409 57.5814C67.6752 57.7267 67.4551 57.9006 67.2146 57.9416C67.1647 57.9498 67.1125 57.9518 67.0626 57.9498C66.8493 57.9354 66.7291 57.8577 66.7359 57.5016C66.7381 57.4095 66.7518 57.3133 66.7654 57.2212C66.8289 56.8139 66.99 56.4005 67.2555 55.9604C67.4052 55.7128 67.5709 55.4754 67.7456 55.2584L67.7614 55.2257L67.7955 55.1868C68.0564 54.8839 68.3196 54.5831 68.5851 54.2822C68.9594 53.8545 69.386 53.3694 69.7853 52.8966C70.879 51.6032 71.596 50.5471 72.1088 49.4706C72.4309 48.7972 72.5376 48.218 72.44 47.7043C72.3765 47.3769 72.2199 47.1251 71.9862 46.9798C71.7956 46.8611 71.5619 46.8202 71.3146 46.8611C71.0355 46.9082 70.7383 47.0555 70.432 47.3011C69.8943 47.7289 69.4427 48.2017 69.0502 48.742C68.2583 49.8369 67.6117 51.0997 67.0739 52.6019C66.8516 53.222 66.6587 53.8524 66.4727 54.4644C66.3774 54.7775 66.2821 55.0906 66.1823 55.4017C66.1777 55.414 65.9871 56.0075 65.9849 56.0075C65.969 56.0382 65.9554 56.0689 65.9349 56.1078L65.9009 56.1774C65.7058 56.4557 65.4721 56.7852 65.3813 56.8917C64.9706 57.3767 64.4601 57.9825 63.8475 58.3325C63.7522 58.3857 63.6546 58.4225 63.5661 58.4389C63.4459 58.4594 63.3438 58.443 63.2644 58.3877C63.16 58.3182 63.0965 58.1851 63.0783 58.0071C63.0602 57.8331 63.0556 57.5732 63.126 57.3358C63.219 57.0288 63.3279 56.7259 63.4368 56.4312C63.455 56.378 63.4754 56.3268 63.4958 56.2736C63.5435 56.1467 63.5934 56.0157 63.6319 55.8847C63.7068 55.6248 63.5934 55.3628 63.371 55.2748C63.1305 55.1807 62.8446 55.3239 62.6109 55.6555C62.5156 55.7926 62.4022 55.985 62.2819 56.1876C62.1821 56.3595 62.0754 56.5355 61.9756 56.689C61.6194 57.2355 61.1951 57.8597 60.6528 58.3386C60.4872 58.486 60.2671 58.6579 60.0266 58.6988C59.9767 58.707 59.9245 58.7091 59.8746 58.707C59.6613 58.6927 59.541 58.6149 59.5478 58.2588C59.5501 58.1667 59.5637 58.0705 59.5773 57.9784C59.6409 57.5711 59.802 57.1577 60.0674 56.7177C60.8026 55.504 61.633 54.8327 62.6132 54.6649C62.6495 54.6588 62.6881 54.6526 62.7266 54.6485C63.1101 54.5994 63.548 54.6015 63.8588 54.9821C63.9133 55.0497 63.9768 55.0783 64.0449 55.0661C64.0971 55.0579 64.1515 55.0251 64.2105 54.9678C64.3217 54.8614 64.687 54.1594 64.5168 53.5925C64.417 53.263 64.1606 53.0399 63.7545 52.9314C63.3188 52.8168 62.3795 52.7984 60.95 53.9793C59.9404 54.8143 58.9556 56.2142 58.4383 57.5445C58.1819 58.2056 58.1002 58.7664 58.1887 59.2576C58.2704 59.7078 58.4429 60.0169 58.7015 60.1806C58.8354 60.2645 58.9874 60.3075 59.1576 60.3075C59.2188 60.3075 59.2824 60.3013 59.3504 60.2911C59.4298 60.2768 59.5115 60.2563 59.5932 60.2277C60.2262 60.0087 60.8094 59.5461 61.3789 58.8114C61.4061 58.7766 61.4356 58.752 61.4696 58.7234C61.4787 58.7152 61.4901 58.707 61.4991 58.6988L61.5218 58.6763L61.5286 58.7009C61.5332 58.7152 61.5377 58.7295 61.5445 58.7459C61.5581 58.7807 61.5717 58.8196 61.5717 58.8646C61.5695 59.1675 61.6443 59.4295 61.7986 59.6403C62.0573 59.9964 62.4203 60.1274 62.9104 60.0435C63.0239 60.025 63.1441 59.9943 63.278 59.9493C63.7998 59.7774 64.3376 59.4172 64.923 58.8441C65.0637 58.707 65.2043 58.5535 65.3269 58.4021L65.3586 58.3652L65.37 58.443C65.3722 58.4614 65.3745 58.4819 65.3768 58.5003C65.4585 58.9485 65.6309 59.2596 65.8896 59.4233C66.0711 59.5379 66.2912 59.5748 66.5385 59.5339C66.6179 59.5195 66.6996 59.4991 66.7813 59.4704C67.4029 59.2555 68.1199 58.7643 68.7439 58.1237C68.9799 57.8802 69.4473 57.1864 69.8988 56.5355C70.1892 56.7955 71.6663 58.1688 73.9738 58.2199C75.7119 58.2588 77.6019 57.5609 78.421 56.6256C79.8187 55.0354 79.3626 53.3653 78.4437 53.1156ZM68.5306 52.7083C68.6055 52.5385 68.6781 52.3686 68.7507 52.1987L68.7552 52.1885C68.9163 51.814 69.082 51.4272 69.2658 51.0506C69.5743 50.41 69.9192 49.7653 70.2142 49.2188C70.3027 49.0531 70.4207 48.8975 70.5364 48.7481L70.5477 48.7338C70.5772 48.6949 70.6067 48.654 70.6385 48.6151C70.6861 48.5496 70.7519 48.4841 70.8291 48.4186C70.9017 48.3593 70.9697 48.3224 71.0219 48.3122C71.0423 48.3081 71.0787 48.3081 71.1104 48.3286C71.149 48.3552 71.1739 48.4145 71.1808 48.4984C71.208 48.8341 71.0492 49.1718 70.8744 49.4849C70.1801 50.7292 69.3225 51.8529 68.6531 52.692C68.6373 52.7104 68.6191 52.7268 68.601 52.7411L68.5692 52.7697L68.5147 52.7472L68.5306 52.7083Z"
        fill="#3521C1" />
    <path
        d="M61.768 65.3858L61.5861 65.5725C60.7058 66.4804 59.8144 66.8783 58.9364 66.756C57.0479 66.5004 53.0835 64.0267 51.0288 62.5264C50.5326 62.1664 49.851 62.2086 49.4076 62.6276C48.9618 63.0465 48.8855 63.7189 49.2245 64.2256L60.4701 81.0472L60.4813 81.0528L60.5329 81.1361C60.5475 81.1572 60.5621 81.1783 60.579 81.1983C60.7429 81.4061 61.1954 82.1296 61.1156 82.7008C61.0943 82.8642 61.0191 83.1142 60.6329 83.3965C59.3204 84.3555 58.5479 83.8421 58.3424 83.6621L58.3166 83.6398L58.2998 83.6121L52.1516 73.7694C51.9731 73.4849 51.6935 73.286 51.3645 73.2093C51.0367 73.1326 50.6976 73.1882 50.4124 73.3637C50.1239 73.5393 49.9229 73.816 49.8454 74.1405C49.768 74.4661 49.823 74.8018 50.0004 75.0862L55.2695 83.5198L55.2728 83.5765C55.2908 83.9021 55.1504 84.5178 53.9963 84.9834C52.4323 85.6191 51.4263 83.8721 51.3836 83.7965L46.4536 75.7475C46.0909 75.1574 45.3117 74.9684 44.7167 75.3263C44.4281 75.4996 44.2249 75.7741 44.1441 76.0986C44.0644 76.4242 44.116 76.7598 44.2912 77.0454L48.4375 83.8132L48.4296 83.8866C48.3612 84.5667 48.0299 85.0267 47.4966 85.1823C46.064 85.5968 44.9918 83.9588 44.8739 83.771L44.8649 83.7565L41.5269 77.5177C41.2013 76.9088 40.4345 76.6754 39.8181 76.9977C39.2028 77.321 38.9671 78.0801 39.2927 78.6902L42.2163 84.1499L42.1972 84.2322C42.0569 84.8078 41.7055 85.1945 41.2092 85.3212C41.107 85.3468 41.0082 85.359 40.9128 85.359C39.9371 85.359 39.2624 84.1421 39.1826 83.9899L39.1748 83.9755L31 65.6825L39.8114 57H49.7455L61.768 65.3858Z"
        fill="#FBE3C9" />
    <path
        d="M74.0838 24H13.2653C12.5805 24 12.0011 24.5901 12.0011 25.2891C12.0011 25.3858 12.0168 25.5202 12.0404 25.6169L12.0494 25.6558L12.0449 25.6958C11.9955 26.0826 12.1235 26.4604 12.3952 26.7338L36.9948 51.4344L35.4229 52.9958C35.4106 53.0191 35.3948 53.0369 35.3814 53.0502L24.1763 64.1665L14.8215 54.4927C14.7934 54.4649 14.7698 54.4294 14.7541 54.3893L14.8035 54.3705H14.7395C14.7395 53.7026 13.9738 53.2892 13.2642 53.2892C12.887 53.2892 12.5513 53.4181 12.3166 53.6503C12.1089 53.8582 12 54.1282 12 54.4349L12.0258 78.4921C12.0258 79.1656 12.5816 79.6923 13.29 79.6923H32.3836L33.8544 83.0995C34.3709 84.1708 35.8024 86 37.8638 86C38.177 86 38.4959 85.9589 38.8136 85.8778C39.5681 85.6855 40.2025 85.3021 40.6976 84.7387L40.8436 84.5731L41.012 84.7153C41.9405 85.4966 42.9375 85.8922 43.9738 85.8922C44.3713 85.8922 44.7777 85.8322 45.1808 85.7144C45.9061 85.5044 46.5079 85.1188 46.9704 84.5687L47.1198 84.3909L47.2938 84.5464C47.918 85.1054 48.9409 85.77 50.2635 85.77C50.808 85.77 51.366 85.6555 51.9218 85.431C52.747 85.0987 53.4094 84.6453 53.89 84.0819L54.0135 83.9374L54.1774 84.0341C54.6029 84.2864 55.299 84.5876 56.1939 84.5876C57.1549 84.5876 58.1351 84.2275 59.1074 83.5174C59.9585 82.8951 60.4738 82.0571 60.5984 81.0925C60.6411 80.7636 60.6321 80.6614 60.5861 80.1702L60.5423 79.6912H74.0827C74.4757 79.6912 74.9989 79.5712 74.9989 78.5388V25.328C75 24.929 74.9102 24 74.0838 24ZM38.1355 26.3626H52.7639V40.5882L45.9285 37.6333C45.7522 37.5577 45.6624 37.5311 45.5064 37.5311C45.3503 37.5311 45.2335 37.5577 45.0573 37.6311L38.1355 40.5993V26.3626ZM14.552 77.3297L14.5329 57.8999L23.195 66.7491C23.4004 66.9592 23.6935 67.0614 24.0921 67.0614H24.1067C24.4884 67.0614 24.7893 66.9558 25.0004 66.7469L26.0524 65.7101L31.2912 77.3297H14.552ZM58.0913 80.8336C58.0689 80.997 57.9948 81.2459 57.6085 81.5282C56.296 82.4872 55.5236 81.9738 55.3181 81.7938L55.2934 81.7715L55.2766 81.7438L49.1284 71.9011C48.9499 71.6155 48.6703 71.4165 48.3413 71.341C48.0135 71.2654 47.6744 71.3199 47.3892 71.4954C47.1007 71.671 46.8997 71.9477 46.8222 72.2722C46.7448 72.5967 46.7998 72.9335 46.9772 73.2179L52.2463 81.6515L52.2496 81.7082C52.2687 82.0338 52.1272 82.6506 50.9731 83.1162C49.4091 83.7519 48.4031 82.0038 48.3615 81.9293L43.4315 73.8792C43.0689 73.2902 42.2897 73.1013 41.6946 73.458C41.4061 73.6313 41.2028 73.9058 41.122 74.2303C41.0412 74.5548 41.0939 74.8915 41.2691 75.1771L45.4154 81.9438L45.4076 82.0182C45.3391 82.6984 45.0079 83.1584 44.4746 83.314C43.0419 83.7285 41.9697 82.0905 41.8518 81.9027L41.8439 81.8882L38.506 75.6494C38.1793 75.0405 37.4124 74.8071 36.796 75.1294C36.1808 75.4527 35.945 76.2118 36.2706 76.8219L39.1942 82.2827L39.174 82.365C39.0337 82.9417 38.6834 83.3285 38.186 83.454C38.085 83.4796 37.985 83.4918 37.8896 83.4918C36.9139 83.4918 36.2391 82.275 36.1594 82.1238L36.1527 82.1094L27.9768 63.8164L36.7882 55.1339H46.7223L58.7448 63.5197L58.564 63.7064C57.6838 64.6143 56.7923 65.0133 55.9143 64.891C54.0258 64.6354 50.0614 62.1606 48.0056 60.6615C47.5105 60.3003 46.829 60.3425 46.3855 60.7626C45.9398 61.1816 45.8623 61.8539 46.2025 62.3606L57.448 79.1833L57.4592 79.1889L57.5109 79.2722C57.5255 79.2934 57.5412 79.3134 57.5569 79.3334C57.7186 79.539 58.171 80.2624 58.0913 80.8336ZM72.6142 77.3297H59.2118L51.5883 65.9112L52.3293 66.2702C53.579 66.8758 54.6984 67.2581 55.5685 67.3759C59.3162 67.8804 61.5236 64.0309 61.6157 63.8664C61.9311 63.3086 61.7695 62.6107 61.2407 62.2428L47.8462 52.948C47.6688 52.8246 47.4442 52.7691 47.1198 52.7691H39.3918L39.6703 52.4113C40.1531 51.7912 40.1519 50.9877 39.6669 50.5021L15.7882 26.3626H35.7485V42.4897C35.7485 43.0475 35.863 43.3498 36.1448 43.5332L36.174 43.552C36.3885 43.6932 36.4615 43.741 36.6692 43.741C36.8376 43.741 36.997 43.7087 37.1576 43.6409L45.4244 40.1426L53.5722 43.6376C53.9573 43.8032 54.3481 43.7676 54.704 43.5354C55.0049 43.3398 55.1497 42.9986 55.1497 42.4897V26.3626H72.6142V77.3297Z"
        fill="#3521C1" />
    <path d="M73.6863 6.00935L70.9604 8.73828L72.271 10.0503L74.9969 7.32134L73.6863 6.00935Z" fill="#EEB168" />
    <path d="M66.7469 12.9595L64.0206 15.6885L65.3312 17.0006L68.0574 14.2717L66.7469 12.9595Z" fill="#EEB168" />
    <path d="M72.2632 12.9579L70.9523 14.2695L73.6774 16.9992L74.9883 15.6876L72.2632 12.9579Z" fill="#EEB168" />
    <path d="M65.3103 6.00033L64 7.3125L66.7263 10.041L68.0366 8.72887L65.3103 6.00033Z" fill="#EEB168" />
    <path
        d="M87.4722 72.9565C84.4504 72.9565 82 70.5034 82 67.4783C82 64.4531 84.4504 62 87.4722 62C90.494 62 92.9444 64.4531 92.9444 67.4783C92.9444 70.5034 90.4813 72.9565 87.4722 72.9565ZM87.4722 63.2711C85.1614 63.2711 83.2697 65.1522 83.2697 67.4783C83.2697 69.8043 85.1487 71.6855 87.4722 71.6855C89.7957 71.6855 91.6748 69.8043 91.6748 67.4783C91.6748 65.1522 89.783 63.2711 87.4722 63.2711Z"
        fill="#EEB168" />
    <path
        d="M1 32.9997L14 32.9997L7.50805 44.2725L1 32.9997ZM11.2131 34.6124L3.78687 34.6124L7.49195 41.0471L11.2131 34.6124Z"
        fill="#EEB168" />
    <path
        d="M117.425 52.8856C116.55 50.8089 118.781 51.1589 119.264 51.7652L126.352 61.1094L142.35 42.1433C142.918 41.4669 143.673 41.8953 143.284 42.8392L127.718 64.6298C127.029 65.6535 125.727 65.5808 125.167 64.6804L117.425 52.8856Z"
        fill="#EEB168" />
</svg>