<svg viewBox="0 0 244 95" fill="none" xmlns="http://www.w3.org/2000/svg">
    <path
        d="M73.4266 56.0667L70.697 56.0805V52.7619C70.697 52.6272 70.645 52.5018 70.5511 52.4074C70.4933 52.3487 70.4221 52.3072 70.3349 52.2842L69.5031 52.2888V48.7711C69.5031 48.252 68.9792 47.7236 68.4631 47.7236C67.8837 47.7271 67.4141 48.2048 67.4141 48.7895V52.298L66.5699 52.3026C66.3616 52.3671 66.2179 52.5605 66.2179 52.7803V56.1035L64.379 56.1127C63.9851 56.115 63.8086 56.4385 63.8086 56.7389C63.8097 57.037 63.984 57.3386 64.3699 57.3386L66.2213 57.3294C66.2417 61.7806 66.2394 74.0534 66.2179 78.2848C66.2179 78.309 66.2168 78.3308 66.2156 78.3539L66.2145 81.3041C66.2145 82.0074 66.4544 82.5956 66.9116 83.0054C66.9727 83.0606 67.0395 83.1101 67.1063 83.1585C67.2568 83.5475 67.4718 84.0494 67.6902 84.5329C67.8577 85.1452 68.1157 85.7219 68.462 86.2514C68.7947 85.7426 69.0448 85.1913 69.2112 84.6054C69.45 84.0897 69.6876 83.5441 69.8494 83.1285C70.3406 82.7671 70.6891 82.1777 70.6891 81.3375C70.6891 75.2586 70.6948 58.6934 70.6948 57.3075L71.7552 57.3018C72.0392 57.3018 72.3153 57.4192 72.5179 57.6252C72.7182 57.829 72.8291 58.1006 72.8291 58.3872C72.828 59.2241 72.8257 68.3533 72.8257 68.3533C72.8257 68.5363 72.888 68.6882 73.0034 68.7895C73.1075 68.8816 73.2512 68.9323 73.4085 68.9323C73.722 68.9323 74.0411 68.7285 74.0411 68.3372V56.671C74.0038 56.2957 73.8091 56.1 73.4266 56.0667Z"
        fill="#FBE3C9" />
    <path
        d="M56.0753 34.1478V77.037L46.5975 86.5576H20.3722C18.7845 86.5576 17.4854 85.258 17.4854 83.6695V34.1478C17.4854 32.5593 18.7845 31.2598 20.3722 31.2598H53.1884C54.7761 31.2598 56.0753 32.5593 56.0753 34.1478Z"
        fill="#FBE3C9" />
    <path
        d="M60.7285 27.426L34.5643 25.6188L27.9882 25.1641C26.4038 25.0548 25.0209 26.2622 24.9157 27.8473L24.4743 34.4637L21.6169 77.2539C21.5105 78.8389 22.7202 80.2248 24.3046 80.3342L50.4688 82.1414L57.0449 82.596C58.6292 82.7054 60.0121 81.4979 60.1174 79.9129L60.5587 73.2965L63.4151 30.5063C63.5226 28.9212 62.3128 27.5353 60.7285 27.426Z"
        fill="#FBE3C9" />
    <path
        d="M56.8699 26.4685L20.6475 24.004C19.4049 23.9211 18.3264 24.88 18.2438 26.1439L17.9677 30.3465H13.2588C12.0128 30.3453 11 31.3767 11 32.6429V85.7019C11 86.9692 12.0128 87.9994 13.2588 87.9994H40.9847C41.2552 87.9994 41.5211 87.8878 41.7135 87.6932L45.8565 83.4975C45.886 83.5021 45.9142 83.5056 45.9414 83.5079L53.0868 83.9937C54.2875 84.0731 55.4112 83.0751 55.4916 81.855L58.9737 28.9145C59.0133 28.3091 58.8153 27.7197 58.4147 27.2535C58.014 26.7885 57.4652 26.5088 56.8699 26.4685ZM39.9515 78.1876V85.8987H13.2588C13.1524 85.8987 13.0653 85.8101 13.0653 85.7019V32.6429C13.0653 32.5347 13.1524 32.446 13.2588 32.446H49.5616C49.668 32.446 49.7551 32.5347 49.7551 32.6429V75.8901H42.2103C40.9655 75.8901 39.9515 76.9214 39.9515 78.1876ZM51.5171 77.7663C51.7107 77.5706 51.8216 77.299 51.8216 77.0216V32.6429C51.8216 31.3755 50.8087 30.3453 49.5627 30.3453H20.0375L20.3034 26.2947C20.325 26.1611 20.3872 26.1047 20.5105 26.1013L56.7228 28.5646C56.8541 28.5865 56.9095 28.6498 56.9129 28.7752L53.4319 81.7099C53.4104 81.84 53.347 81.8952 53.226 81.8987L47.8019 81.5292L51.5171 77.7663ZM48.3009 77.9908L42.0168 84.4057V78.1876C42.0168 78.0794 42.1039 77.9908 42.2103 77.9908H48.3009Z"
        fill="#3521C1" />
    <path
        d="M18.8709 55.6224H43.9498C44.519 55.6224 44.983 55.1516 44.983 54.5714C44.983 53.9925 44.5201 53.5205 43.9498 53.5205H18.8709C18.3016 53.5205 17.8376 53.9913 17.8376 54.5714C17.8388 55.1504 18.3016 55.6224 18.8709 55.6224Z"
        fill="#3521C1" />
    <path
        d="M44.983 61.092C44.983 60.513 44.5201 60.041 43.9498 60.041H18.8709C18.3016 60.041 17.8376 60.5118 17.8376 61.092C17.8376 61.6709 18.3005 62.1429 18.8709 62.1429H43.9498C44.519 62.1417 44.983 61.6709 44.983 61.092Z"
        fill="#3521C1" />
    <path
        d="M18.8709 49.1019H43.9498C44.519 49.1019 44.983 48.6311 44.983 48.0509C44.983 47.4708 44.5201 47 43.9498 47H18.8709C18.3016 47 17.8376 47.4708 17.8376 48.0509C17.8376 48.6311 18.3016 49.1019 18.8709 49.1019Z"
        fill="#3521C1" />
    <path
        d="M23.2888 42.5814H39.5327C40.102 42.5814 40.566 42.1106 40.566 41.5304C40.566 40.9503 40.1031 40.4795 39.5327 40.4795H23.2888C22.7195 40.4795 22.2556 40.9503 22.2556 41.5304C22.2556 42.1106 22.7195 42.5814 23.2888 42.5814Z"
        fill="#3521C1" />
    <path
        d="M34.9937 78.6791C34.9926 78.6791 34.9914 78.6791 34.9903 78.6791C33.337 78.6837 31.6824 78.6871 30.0291 78.6894C29.4734 78.6906 28.9178 78.6906 28.3621 78.6917C28.3599 78.6917 28.3587 78.6917 28.3565 78.6917C27.3538 78.6917 26.7699 78.4926 26.5616 77.452C26.4734 77.0089 26.1395 76.7188 25.6903 76.6946C25.2557 76.6704 24.7317 76.9202 24.5699 77.4405C24.3391 78.1784 24.0414 78.5778 23.7076 78.595C23.3183 78.6146 22.8554 78.1185 22.5024 77.2978C22.0395 76.2215 21.8482 75.0244 21.6627 73.8664C21.6151 73.566 21.5665 73.2667 21.5144 72.9709C21.4261 72.4678 21.0346 72.1674 20.5185 72.2077C20.0297 72.2445 19.5012 72.6186 19.4842 73.2368C19.4423 74.7838 19.2861 76.0339 18.993 77.1712C18.6513 78.4995 18.1307 79.7979 17.6283 81.0537L17.6215 81.0699C17.4913 81.3956 17.5219 81.7099 17.7086 81.9539C17.8987 82.2025 18.2235 82.3476 18.5687 82.3476C18.6253 82.3476 18.6818 82.3441 18.7384 82.336C19.1379 82.2796 19.4536 82.031 19.6053 81.6535C20.0149 80.6313 20.4371 79.5781 20.7698 78.4857C21.1251 79.2638 21.786 80.3573 22.7909 80.7188C23.3669 80.9248 23.9747 80.8569 24.5959 80.5127C24.9094 80.3389 25.2104 80.1007 25.4922 79.8025C26.4236 80.8074 27.7193 80.8005 28.9744 80.7925C29.0649 80.7925 29.1543 80.7913 29.2437 80.7913C31.1596 80.789 33.0755 80.7844 34.9914 80.7798C35.6501 80.7775 35.9941 80.2468 35.9918 79.7231C35.9907 79.204 35.6478 78.6791 34.9937 78.6791Z"
        fill="#3521C1" />
    <path
        d="M73.2226 54.7259C72.7439 54.2413 72.0762 53.9627 71.3406 53.942L70.759 53.9454V52.7241C70.759 51.8977 70.2859 51.0171 69.6024 50.5578V48.738C69.6024 47.8079 69.2697 47.0263 68.6405 46.4772C68.0848 45.9926 67.3368 45.7256 66.5344 45.7256C65.0474 45.7256 63.4461 46.6741 63.4461 48.7564V50.5762C62.7196 51.0585 62.2873 51.8631 62.2873 52.7414V54.0053C60.7018 54.1699 59.9832 55.5086 59.9889 56.7069C59.9934 57.8925 60.7177 59.2105 62.2918 59.3601C62.311 63.6652 62.3088 73.4643 62.2884 77.5713C62.2884 77.5944 62.2884 77.6174 62.2895 77.6404V79.0321C62.2895 80.426 62.7139 81.6013 63.5163 82.4324C63.6 84.3995 64.4307 86.3161 65.8 87.6974C65.9992 87.8977 66.2334 87.9806 66.4699 87.9806C66.754 87.9806 67.0392 87.8608 67.2655 87.6836L67.2768 87.6732C68.6744 86.2493 69.4756 84.3616 69.5356 82.3518C70.1388 81.7394 70.7522 81.0821 70.7522 78.948L70.7533 70.5716C71.5081 70.7443 72.2969 70.5659 72.9374 70.0744C73.6142 69.5541 74.0023 68.7748 74.0023 67.9368V56.6298C74 55.9092 73.7239 55.2335 73.2226 54.7259ZM64.3526 53.9777V52.7414C64.3526 52.5285 64.4918 52.3408 64.6932 52.2787L68.344 52.2603C68.4266 52.2833 68.4979 52.3236 68.5533 52.38C68.6439 52.4721 68.6937 52.5941 68.6937 52.7241V53.9558L64.3526 53.9777ZM65.5114 50.1515V48.7564C65.5114 48.19 65.9675 47.7262 66.5288 47.7227C67.029 47.7227 67.5371 48.2349 67.5371 48.738V50.1411L65.5114 50.1515ZM64.356 59.367L68.6914 59.3452C68.6914 60.6896 68.6857 73.3872 68.6857 79.2807C68.6857 80.7679 67.5631 81.4459 66.5209 81.4459C65.9494 81.4459 65.4186 81.2513 65.0248 80.898C64.5823 80.5008 64.3492 79.9311 64.3492 79.2496L64.3503 77.6496C64.3514 77.6277 64.3526 77.6059 64.3526 77.5829C64.3729 73.4793 64.3752 63.6824 64.356 59.367ZM70.4579 57.5518C70.2622 57.3526 69.9939 57.2387 69.7189 57.2387L62.5611 57.2744C62.1866 57.2744 62.0179 56.982 62.0168 56.6931C62.0157 56.403 62.1888 56.0888 62.5702 56.0876L71.3406 56.0427C71.7107 56.0749 71.8997 56.2649 71.9348 56.6286V67.9357C71.9348 68.3144 71.6258 68.5135 71.3214 68.5135C71.1686 68.5135 71.0294 68.464 70.9287 68.3754C70.8167 68.2764 70.7578 68.1302 70.7578 67.9518C70.7578 67.9518 70.759 59.1011 70.7601 58.2896C70.7601 58.0122 70.6526 57.7498 70.4579 57.5518ZM67.287 83.5903C67.1286 84.2027 66.8728 84.7783 66.5276 85.3043C66.187 84.7829 65.9335 84.2142 65.7717 83.6099C66.2787 83.6985 66.7834 83.6916 67.287 83.5903Z"
        fill="#3521C1" />
    <path d="M89.6864 81.0094L86.9605 83.7383L88.271 85.0503L90.9969 82.3213L89.6864 81.0094Z" fill="#EEB168" />
    <path d="M82.7469 87.9595L80.0206 90.6885L81.3312 92.0006L84.0574 89.2717L82.7469 87.9595Z" fill="#EEB168" />
    <path d="M88.2632 87.9579L86.9523 89.2695L89.6774 91.9992L90.9883 90.6876L88.2632 87.9579Z" fill="#EEB168" />
    <path d="M81.3103 81.0003L80 82.3125L82.7263 85.041L84.0366 83.7289L81.3103 81.0003Z" fill="#EEB168" />
    <path
        d="M5.47644 20.4325L5.48251 9.47354L16.4325 9.47647L16.4265 20.4175L5.47644 20.4325ZM6.75736 10.7484L6.75271 19.1563L15.1606 19.1516L15.1652 10.7437L6.75736 10.7484Z"
        fill="#EEB168" />
    <path d="M86 35.2727H73L79.4919 24L86 35.2727ZM75.7869 33.66H83.2131L79.5081 27.2254L75.7869 33.66Z"
        fill="#EEB168" />
    <g clip-path="url(#clip0)">
        <path
            d="M120.363 55.5822C120.363 55.5822 121.076 55.7435 122.471 56.0023L122.778 54.3294C121.427 54.0774 120.758 53.9231 120.739 53.9292L120.363 55.5822Z"
            fill="#EEB168" />
        <path
            d="M126.639 56.6916C127.852 56.8721 129.248 57.0676 130.821 57.2592L131.027 55.5659C129.466 55.3809 128.089 55.1792 126.889 55.0052L126.639 56.6916ZM135.023 57.7258C136.338 57.8633 137.734 57.9956 139.214 58.1226L139.356 56.4286C137.877 56.3015 136.493 56.1758 135.197 56.0321L135.023 57.7258ZM143.424 58.4502C144.764 58.5374 146.161 58.6381 147.635 58.7144L147.733 57.0134C146.279 56.931 144.888 56.8494 143.554 56.7496L143.424 58.4502ZM151.828 58.9214C153.181 58.9835 154.592 59.0274 156.027 59.0843L156.075 57.389C154.633 57.3447 153.241 57.2947 151.888 57.2326L151.828 58.9214ZM160.241 59.1903C161.613 59.2147 163.018 59.2395 164.448 59.2457L164.464 57.55C163.034 57.5438 161.629 57.519 160.276 57.4885L160.241 59.1903ZM168.669 59.2759C170.042 59.2687 171.447 59.2619 172.871 59.2489L172.855 57.5528C171.431 57.5657 170.026 57.5725 168.653 57.5798L168.669 59.2759ZM177.073 59.1903C178.441 59.164 179.846 59.1256 181.283 59.0875L181.236 57.391C179.811 57.4355 178.412 57.4614 177.045 57.4877L177.073 59.1903ZM185.5 58.9405C186.88 58.8891 188.279 58.8315 189.697 58.7679L189.618 57.0709C188.2 57.1345 186.801 57.1921 185.433 57.25L185.5 58.9405ZM193.902 58.5511C195.276 58.4806 196.676 58.3915 198.107 58.3027L197.997 56.6053C196.584 56.688 195.185 56.7771 193.811 56.8477L193.902 58.5511ZM202.294 58.0287C203.681 57.9331 205.075 57.8249 206.487 57.7106L206.358 56.0192C204.945 56.1335 203.558 56.2292 202.171 56.3248L202.294 58.0287ZM210.687 57.3798C212.068 57.2651 213.456 57.1378 214.875 57.0109L214.714 55.3192C213.307 55.4525 211.907 55.5733 210.538 55.6946L210.687 57.3798ZM219.063 56.6104C220.438 56.4766 221.839 56.3242 223.252 56.1782L223.071 54.4926C221.671 54.645 220.277 54.7849 218.902 54.9187L219.063 56.6104ZM227.422 55.7205C228.803 55.5742 230.197 55.4027 231.605 55.2377L231.405 53.5581C229.998 53.7231 228.61 53.882 227.229 54.0284L227.422 55.7205Z"
            fill="#EEB168" />
        <path d="M237.683 52.7649L237.897 54.4492L235.792 54.7168L235.578 53.0325L237.683 52.7649Z" fill="#EEB168" />
        <path
            d="M231.289 59.4851L240.008 53.7969L230.643 48.9592L229.864 50.4677L236.639 53.9677L230.359 58.049L231.289 59.4851Z"
            fill="#EEB168" />
    </g>
    <defs>
        <clipPath id="clip0">
            <rect width="129" height="39" fill="white" transform="matrix(1 1.74846e-07 1.74846e-07 -1 115 74.2676)" />
        </clipPath>
    </defs>
</svg>