<svg viewBox="0 0 244 95" fill="none" xmlns="http://www.w3.org/2000/svg">
    <path
        d="M64.005 67.7846C64.0015 77.4582 56.149 85.3276 46.5013 85.3276C41.8303 85.3276 37.4394 83.5027 34.1374 80.1892C30.8319 76.8779 29.0126 72.474 29.0138 67.788L29 52.6524L29.2538 52.4095C29.8442 51.843 31.3775 51.9351 32.6707 52.6156L33.1094 52.8482V64.1878C33.1094 64.7692 33.5803 65.2412 34.1592 65.2412C34.7381 65.2412 35.209 64.7692 35.209 64.1878V37.8196C35.209 37.0828 35.4915 36.3851 36.0049 35.8554C36.539 35.304 37.2534 35 38.0171 35C38.7821 35 39.4987 35.304 40.0339 35.8543C40.5485 36.3839 40.8322 37.0828 40.8322 37.8196L40.8276 56.2251C40.8276 56.8042 41.2985 57.2774 41.8785 57.2774C42.4585 57.2774 42.9317 56.8065 42.9317 56.2262V49.7361C42.9317 48.1829 44.1939 46.9187 45.7456 46.9187C46.4979 46.9187 47.2042 47.2123 47.7337 47.7442C48.2632 48.2762 48.5538 48.9854 48.5526 49.7418L48.5561 56.2297C48.5584 56.8065 49.0293 57.2774 49.6058 57.2774C50.1847 57.2762 50.6556 56.803 50.6556 56.2228L50.6579 53.3375C50.6935 52.6363 50.9875 51.9789 51.4825 51.4873C52.012 50.9565 52.7172 50.6629 53.4672 50.6629C55.0154 50.6629 56.2776 51.9259 56.2811 53.4768L56.2776 59.1057C56.2776 59.6848 56.7485 60.1557 57.3274 60.1557C57.9063 60.1557 58.3772 59.6837 58.3783 59.1034V57.2175C58.3806 56.468 58.6735 55.7645 59.2018 55.2337C59.7324 54.7007 60.4399 54.4082 61.1922 54.4082C62.7404 54.4082 64.0015 55.6713 64.0038 57.2256L64.005 67.7846Z"
        fill="#FBE3C9" />
    <path
        d="M72.2343 43.4714H23.8811C19.1239 43.4714 15.2671 39.6051 15.2671 34.8363C15.2671 30.0674 19.1239 26.2012 23.8811 26.2012H72.2343C76.9915 26.2012 80.8483 30.0674 80.8483 34.8363C80.8483 39.6051 76.9915 43.4714 72.2343 43.4714Z"
        fill="#FBE3C9" />
    <path
        d="M75.3235 31.4758L75.2603 31.3307C73.8499 28.0931 70.6639 26 67.1437 26H16.8563C13.3361 26 10.1501 28.0931 8.73965 31.3307L8.67534 31.477C8.22741 32.5569 8 33.7048 8 34.8861C8 39.7839 11.9728 43.7699 16.8563 43.7699H33.6329V41.6871H16.8563C13.2626 41.6871 10.7105 38.8559 10.1328 36.1906L9.85718 34.5361L10.7909 35.7864C11.758 37.4029 14.3847 38.339 16.4785 38.4276C16.6151 38.4299 23.4409 38.4322 31.5311 38.4334H33.6329V38.3862C33.6329 37.6493 33.9155 36.9516 34.4289 36.422C34.4541 36.3967 34.4794 36.3702 34.5058 36.3472C33.6444 36.3472 32.8003 36.3471 31.9756 36.346C23.0033 36.3437 16.4429 36.3402 16.3774 36.3356C14.0505 36.171 11.6512 34.6259 10.6715 32.6628L10.5693 32.4591L10.6485 32.2414C11.7178 29.385 14.6155 28.0839 16.8563 28.0839H67.1437C69.3845 28.0839 72.2822 29.385 73.3515 32.2414L73.4307 32.4591L73.3285 32.664C72.35 34.6259 69.9495 36.171 67.6226 36.3356C67.5675 36.3391 67.4021 36.3506 57.6166 36.3518C52.1427 36.3506 46.361 36.3495 40.9135 36.3483C40.0613 36.3483 39.2171 36.3483 38.3833 36.3472C38.4085 36.3713 38.4338 36.3955 38.4579 36.4208C38.9725 36.9505 39.2562 37.6493 39.2562 38.3862V38.4334C39.9602 38.4345 40.662 38.4345 41.3568 38.4345C48.3962 38.4357 54.7958 38.4357 57.1756 38.4357H58.1024C63.9485 38.4357 67.3814 38.4322 67.5227 38.4276C69.6153 38.339 72.242 37.4029 73.2091 35.7864L73.2228 35.7669L74.1428 34.5361L73.8672 36.1906C73.2895 38.8559 70.7374 41.6871 67.1437 41.6871H39.255V43.7699H67.1437C72.0272 43.7699 76 39.7839 76 34.8861C76 33.706 75.7726 32.5581 75.3235 31.4758Z"
        fill="#3521C1" />
    <path
        d="M59.6128 52.8746C58.9558 52.8746 58.3195 53.0012 57.72 53.2511L56.8701 53.6068L56.6185 52.7157C56.0282 50.6133 54.0998 49.1385 51.9256 49.127C51.1286 49.1868 50.5566 49.2686 49.9995 49.5023L49.1485 49.8569L48.897 48.9681C48.6684 48.161 48.2354 47.4184 47.6416 46.822C46.7193 45.894 45.487 45.3828 44.173 45.3828C43.6172 45.3828 43.0417 45.4933 42.4629 45.7098L41.3568 46.1254V38.3895C41.3568 37.8346 41.2661 37.2911 41.0858 36.7765C41.0353 36.6302 40.9778 36.4863 40.9135 36.3482C40.121 34.6039 38.3764 33.4629 36.44 33.4629C34.5081 33.4629 32.767 34.6039 31.9756 36.3459C31.9113 36.4852 31.8527 36.6291 31.8022 36.7765C31.6219 37.2946 31.5311 37.838 31.5311 38.3895V50.9875L30.5101 50.725C29.9588 50.5823 29.419 50.5097 28.9033 50.5097C28.2084 50.5097 27.5595 50.6456 27.03 50.9035C25.9516 51.4273 25.3325 52.4244 25.3325 53.6379L25.3371 68.3544C25.336 73.6 27.3735 78.5335 31.0729 82.2477C34.7712 85.9574 39.6915 87.9999 44.9253 87.9999C55.7307 87.9999 64.525 79.1852 64.5296 68.351V57.7966C64.5239 55.0829 62.3187 52.8746 59.6128 52.8746ZM44.9253 85.8941C40.2542 85.8941 35.8634 84.0692 32.5614 80.7556C29.2559 77.4443 27.4366 73.0404 27.4378 68.3544L27.424 53.2188L27.6778 52.9759C28.2682 52.4094 29.8015 52.5016 31.0947 53.182L31.5334 53.4146V64.7542C31.5334 65.3356 32.0043 65.8077 32.5832 65.8077C33.1621 65.8077 33.633 65.3356 33.633 64.7542V38.386C33.633 37.6492 33.9155 36.9515 34.4289 36.4219C34.4542 36.3965 34.4794 36.37 34.5058 36.347C35.0307 35.8427 35.713 35.5664 36.4411 35.5664C37.1716 35.5664 37.8573 35.8427 38.3833 36.347C38.4086 36.3712 38.4338 36.3954 38.4579 36.4207C38.9725 36.9503 39.2562 37.6492 39.2562 38.386V38.4333L39.255 41.687V43.7697L39.2516 56.7915C39.2516 57.3706 39.7225 57.8438 40.3025 57.8438C40.8825 57.8438 41.3557 57.3729 41.3557 56.7926V50.3025C41.3557 48.7493 42.6179 47.4851 44.1696 47.4851C44.9219 47.4851 45.6282 47.7787 46.1577 48.3107C46.6872 48.8426 46.9778 49.5518 46.9766 50.3082L46.9801 56.7961C46.9824 57.3729 47.4532 57.8438 48.0298 57.8438C48.6087 57.8426 49.0796 57.3694 49.0796 56.7892L49.0819 53.9039C49.1175 53.2027 49.4115 52.5453 49.9065 52.0537C50.436 51.5229 51.1412 51.2293 51.8912 51.2293C53.4394 51.2293 54.7016 52.4923 54.7051 54.0432L54.7016 59.6721C54.7016 60.2513 55.1725 60.7222 55.7514 60.7222C56.3303 60.7222 56.8012 60.2501 56.8023 59.6698V57.7839C56.8046 57.0344 57.0975 56.3309 57.6258 55.8002C58.1564 55.2671 58.8639 54.9746 59.6162 54.9746C61.1644 54.9746 62.4255 56.2377 62.4278 57.792L62.429 68.351C62.4255 78.0246 54.573 85.8941 44.9253 85.8941Z"
        fill="#3521C1" />
    <path d="M40.8886 9.00863L38.3874 11.5127L39.5899 12.7166L42.0912 10.2125L40.8886 9.00863Z" fill="#EEB168" />
    <path d="M34.5205 15.3856L32.0189 17.8896L33.2215 19.0937L35.7231 16.5896L34.5205 15.3856Z" fill="#EEB168" />
    <path d="M39.5824 15.3844L38.3795 16.5879L40.8801 19.0927L42.083 17.8891L39.5824 15.3844Z" fill="#EEB168" />
    <path d="M33.2024 9.00005L32 10.2041L34.5016 12.7078L35.704 11.5038L33.2024 9.00005Z" fill="#EEB168" />
    <path
        d="M9.47221 61.9565C6.45043 61.9565 4 59.5034 4 56.4783C4 53.4531 6.45043 51 9.47221 51C12.494 51 14.9444 53.4531 14.9444 56.4783C14.9444 59.5034 12.4813 61.9565 9.47221 61.9565ZM9.47221 52.2711C7.16144 52.2711 5.26965 54.1522 5.26965 56.4783C5.26965 58.8043 7.14874 60.6855 9.47221 60.6855C11.7957 60.6855 13.6748 58.8043 13.6748 56.4783C13.6748 54.1522 11.783 52.2711 9.47221 52.2711Z"
        fill="#EEB168" />
    <path
        d="M83.7449 86.4942L76 78.7408L83.7449 71L91.4771 78.7408L83.7449 86.4942ZM77.8029 78.7408L83.7449 84.6893L89.6869 78.7408L83.7449 72.7922L77.8029 78.7408Z"
        fill="#EEB168" />
    <g clip-path="url(#clip0)">
        <path
            d="M120.441 58.5303C120.441 58.5303 121.139 58.3149 122.51 57.9499L122.944 59.5943C121.617 59.9491 120.962 60.1542 120.942 60.1497L120.441 58.5303Z"
            fill="#EEB168" />
        <path
            d="M126.613 56.943C127.809 56.6701 129.185 56.3681 130.739 56.0565L131.074 57.7289C129.533 58.0331 128.175 58.3397 126.992 58.6052L126.613 56.943ZM134.893 55.269C136.193 55.0311 137.576 54.7921 139.041 54.5521L139.313 56.2302C137.848 56.4703 136.477 56.7018 135.197 56.9443L134.893 55.269ZM143.214 53.9027C144.543 53.7129 145.929 53.5054 147.392 53.3164L147.62 55.0048C146.177 55.1985 144.796 55.3865 143.474 55.5883L143.214 53.9027ZM151.557 52.7884C152.901 52.6227 154.304 52.4708 155.732 52.3041L155.909 53.9907C154.474 54.1455 153.091 54.302 151.746 54.4677L151.557 52.7884ZM159.924 51.8753C161.291 51.7457 162.69 51.6133 164.115 51.4975L164.261 53.187C162.836 53.3028 161.437 53.4352 160.09 53.5694L159.924 51.8753ZM168.321 51.1438C169.691 51.0457 171.092 50.9448 172.513 50.8484L172.627 52.5408C171.206 52.6371 169.805 52.738 168.435 52.8361L168.321 51.1438ZM176.707 50.5846C178.073 50.506 179.477 50.4366 180.913 50.3644L180.995 52.0596C179.572 52.1244 178.175 52.2058 176.81 52.2844L176.707 50.5846ZM185.128 50.1877C186.508 50.1332 187.908 50.0832 189.327 50.0379L189.378 51.7359C187.959 51.7813 186.559 51.8312 185.191 51.8783L185.128 50.1877ZM193.536 49.9316C194.911 49.8966 196.313 49.8782 197.747 49.8569L197.767 51.5578C196.353 51.5836 194.95 51.6021 193.575 51.6371L193.536 49.9316ZM201.943 49.8091C203.333 49.7981 204.731 49.7992 206.148 49.8048L206.148 51.5011C204.731 51.4954 203.341 51.5064 201.95 51.5174L201.943 49.8091ZM210.361 49.8126C211.747 49.8211 213.14 49.8416 214.565 49.8593L214.534 51.5584C213.121 51.5333 211.716 51.5202 210.342 51.5043L210.361 49.8126ZM218.771 49.9375C220.152 49.9655 221.561 50.0101 222.981 50.0472L222.93 51.7417C221.522 51.6971 220.121 51.6646 218.74 51.6366L218.771 49.9375ZM227.173 50.1839C228.562 50.2239 229.966 50.2879 231.381 50.3446L231.311 52.0345C229.895 51.9779 228.499 51.9258 227.111 51.8858L227.173 50.1839Z"
            fill="#EEB168" />
        <path d="M237.632 52.3442L237.716 50.6484L235.596 50.5431L235.512 52.2388L237.632 52.3442Z" fill="#EEB168" />
        <path
            d="M230.741 46.1328L239.87 51.1357L230.904 56.6773L230.011 55.233L236.498 51.2237L229.923 47.636L230.741 46.1328Z"
            fill="#EEB168" />
    </g>
    <defs>
        <clipPath id="clip0">
            <rect width="129" height="39" fill="white" transform="translate(115 35.2676)" />
        </clipPath>
    </defs>
</svg>