<svg width="3134" height="879" viewBox="0 0 3134 879" fill="none" xmlns="http://www.w3.org/2000/svg">
<g clip-path="url(#clip0)">
<path d="M2543.01 653.49C2596 633.031 2646.18 611.535 2680.97 589.99C2666.97 598.555 2651.9 607.009 2635.14 615.086C2659.85 602.89 2681 592.798 2705.92 580.351C2705.37 582.876 2700.76 586.127 2696.45 589.11C2692.04 592.091 2688.26 594.902 2689.9 596.72C2661.94 612.392 2627.98 626.841 2589.83 639.571C2551.82 652.377 2510.29 663.659 2467.61 673.789C2472.72 670.328 2478.29 667.678 2484.61 665.68C2490.9 663.682 2497.83 662.297 2504.83 661.133C2518.41 658.631 2532.92 657.114 2543.01 653.49Z" fill="#FAF5EF"/>
<path d="M2756.63 546.393C2756.74 546.267 2756.4 546.771 2756.2 547.041C2756.01 547.329 2755.65 547.76 2755.37 548.12C2754.82 548.857 2754.14 549.647 2753.43 550.436C2752.12 551.998 2750.41 553.626 2748.89 555.202C2750.15 553.457 2751.61 551.715 2752.85 550.152C2753.53 549.38 2754.21 548.627 2754.85 547.891C2755.18 547.569 2755.51 547.229 2755.84 546.907C2756.17 546.658 2756.58 546.264 2756.63 546.393Z" fill="#FAF5EF"/>
<path d="M1941.94 794.385C1929.64 795.907 1917.21 797.39 1905.01 798.604C1916.85 796.818 1929.42 795.648 1941.94 794.385Z" fill="#FAF5EF"/>
<path d="M2464.51 697.672C2460.09 699.468 2455.39 701.168 2450.46 702.845C2440.05 705.387 2429.09 707.7 2418.17 710.032C2407.23 712.363 2396.4 714.77 2384.98 716.892C2373.69 719.071 2362.35 721.249 2350.96 723.444C2339.31 725.471 2327.64 727.515 2315.91 729.558C2328.51 727.258 2341.14 724.775 2353.56 722.107C2365.74 719.324 2378.03 716.507 2390.32 713.69C2402.5 710.835 2414.47 707.884 2426.94 705.253C2433.14 703.928 2439.34 702.602 2445.5 701.294C2451.74 700.025 2458.06 698.793 2464.51 697.672Z" fill="#FAF5EF"/>
<path d="M2518.71 690.565C2558.49 678.648 2598.94 666.727 2638.63 655.703C2600.29 667.153 2560.6 679.071 2518.71 690.565Z" fill="#FAF5EF"/>
<path d="M1556.83 849.687C1557.22 850.241 1556.29 850.68 1554.8 851.053C1553.17 851.242 1551.73 851.489 1550.57 851.832C1539.14 851.693 1527.72 851.535 1516.32 851.397C1504.93 851.131 1493.54 850.864 1482.16 850.598C1487.7 850.246 1492.68 849.153 1498.38 849.058C1523.48 849.706 1529.43 851.968 1556.83 849.687Z" fill="#FAF5EF"/>
<path d="M1955.84 792.911L1956.91 792.511C1961.12 791.988 1965.26 791.463 1969.38 790.937C1969.93 790.948 1970.45 790.957 1971.06 790.969C1966.09 791.697 1961.01 792.332 1955.84 792.911Z" fill="#FAF5EF"/>
<path d="M1585.68 849.384C1586.49 850.402 1587.3 851.42 1589.55 852.191C1576.63 852.17 1563.71 851.967 1550.85 851.837C1552.31 851.591 1553.71 851.325 1554.8 851.053C1563.05 850.149 1576.69 850.949 1585.68 849.384Z" fill="#FAF5EF"/>
<path d="M1878.49 843.15C1886.5 842.46 1892.09 839.828 1895.45 839.034C1917.17 838.781 1939.06 838.585 1964.04 837.08C1967.37 836.212 1975.3 835.429 1981.89 833.691C1987.05 834.097 1992.48 834.362 1998.12 834.521C1984.66 835.675 1971.13 836.828 1957.53 837.98C1950.72 838.546 1943.89 839.113 1937.03 839.678C1930.13 840.17 1923.19 840.643 1916.23 841.134C1902.31 842.079 1888.3 843.04 1874.2 844C1860.11 844.979 1845.69 845.604 1831.29 846.413C1846.51 845.182 1862.25 844.271 1878.49 843.15Z" fill="#FAF5EF"/>
<path d="M715.115 782.757C750.285 786.784 786.32 792.176 823.148 796.726C859.879 801.293 897.194 804.904 932.853 805.257C893.999 799.958 847.709 794.047 810.911 787.893C774.064 781.774 746.885 775.47 745.408 770.447C743.947 765.423 769.628 768.691 803.988 773.614C838.283 778.592 881.582 785.122 912.326 787.772C904.862 786.065 904.862 786.065 897.43 784.359C904.846 786.065 912.342 787.772 920.168 787.426C905.19 784.066 875.282 779.17 868.569 775.362L884.188 774.722C866.219 769.392 838.97 764.272 812.323 758.982C799.016 756.327 785.822 753.639 774.218 750.852C768.334 749.484 763.002 748.054 758.057 746.668C753.453 745.288 748.446 743.772 746.364 742.548C746.733 742.701 746.893 742.813 747.457 742.988L749.147 743.494C750.274 743.824 751.369 744.173 752.657 744.525C755.154 745.21 757.602 745.912 760.244 746.581C765.497 747.955 770.895 749.295 776.537 750.603C787.74 753.237 799.593 755.773 811.9 758.19C836.516 763.005 862.937 767.435 890.694 771.342C946.159 779.266 1006.82 785.317 1069.5 789.892C1195.06 799.082 1328.24 801.904 1451.04 802.619C1519.78 802 1585.47 798.936 1647.51 794.309C1663.01 793.084 1678.3 791.837 1693.38 790.531C1708.41 789.096 1723.21 787.584 1737.82 786.087C1752.47 784.646 1766.76 782.924 1780.88 781.199C1794.98 779.455 1808.97 777.837 1822.59 775.939C1833.02 774.765 1851.2 773.644 1871.46 772.672C1891.65 771.606 1913.76 770.376 1932.36 769.573C1940.38 768.902 1948.27 768.064 1956.17 767.226L1979.82 764.748L2003.37 762.232C2011.14 761.319 2018.85 760.332 2026.55 759.363C2041.91 757.387 2057.26 755.485 2072.26 753.284C2087.2 751.009 2101.96 748.639 2116.51 746.175C2179.7 736.974 2242.12 729.072 2304.01 719.902C2365.77 710.748 2427.06 700.273 2484.54 686.134C2495.83 683.28 2513.42 681.93 2521.23 683.023C2525.19 683.607 2526.88 684.879 2524.28 687.073C2521.55 689.211 2514.38 692.177 2500.8 696.21C2456.91 710.145 2405.7 721.574 2351.1 730.861C2352.38 729.025 2360.32 727.532 2368.6 725.734C2376.97 723.994 2386.16 722.195 2390.64 720.163C2369.89 723.042 2350.95 725.643 2332.12 728.247C2322.74 729.568 2313.6 731.021 2304.13 732.431C2294.59 733.786 2284.94 735.247 2274.99 736.813L2294.91 733.664C2301.56 732.62 2308.23 731.596 2314.65 730.42L2353.56 723.631C2289.36 735.348 2213.92 745.506 2138.65 755.685C2124.55 757.283 2109.16 756.559 2093.21 756.737C2085.22 756.807 2077.1 757.166 2068.76 758.051C2060.36 758.879 2051.82 760.343 2043.06 762.842C2095.39 759.84 2147.91 755.638 2200.05 750.7C2212.93 749.353 2225.78 747.932 2238.66 746.494L2257.95 744.318C2264.31 743.543 2270.58 742.693 2276.87 741.862C2289.45 740.181 2302.04 738.501 2314.53 736.727C2326.77 734.821 2338.98 732.86 2351.11 730.861C2351.03 730.951 2350.9 731.04 2350.9 731.131C2356.22 730.19 2361.62 729.324 2366.78 728.363C2371.93 727.401 2377.03 726.456 2382.1 725.511C2392.29 723.658 2402.31 721.839 2412.3 720.037C2422.07 718.104 2431.78 716.187 2441.57 714.272C2446.46 713.306 2451.35 712.339 2456.27 711.355C2461.05 710.313 2465.85 709.254 2470.69 708.195C2464.92 709.656 2459.32 711.247 2453.37 712.541C2447.47 713.853 2441.57 715.038 2435.76 715.897C2497.61 706.58 2553.44 693.997 2605.32 679.919C2574.08 692.175 2536.73 703.041 2496.46 712.941C2456.3 722.916 2412.09 731.393 2366.84 739.158C2275.75 754.477 2179.11 766.046 2086.38 776.94C2100.61 776.731 2115.3 775.655 2130.16 774.235C2137.57 773.516 2145.03 772.725 2152.46 771.878C2159.86 770.995 2167.13 769.981 2174.42 769.022C2188.96 767.086 2203.34 765.257 2217.24 763.838C2230.97 762.288 2244.29 761.241 2257.12 761.096C2173.56 772.434 2085.8 780.886 1994.71 786.797C2001.17 785.968 2007.42 785.063 2013.56 784.047C1984.31 784.543 1955.64 786.873 1926.58 788.794C1912.08 789.801 1897.73 791.029 1883.28 791.927C1868.82 792.807 1854.43 793.597 1840.17 794.189C1835.05 794.368 1829.98 794.547 1824.83 794.725C1829.91 794.582 1835.03 794.404 1840.17 794.189C1866.45 793.274 1892.62 792.466 1918.28 791.083C1931.16 790.447 1943.99 789.811 1956.78 789.191C1969.47 788.388 1982.11 787.602 1994.71 786.815C1983.67 788.232 1972.06 789.439 1959.52 790.5C1946.93 791.451 1933.33 792.165 1918.5 792.856C1935.54 793.701 1959.17 793.174 1982.48 792.094C1997.5 790.987 2012.52 789.899 2027.5 788.81C2042.39 787.573 2057.23 786.336 2071.98 785.097C2049.34 787.247 2027.26 789.863 2005.36 792.118C1983.54 794.448 1962.56 797.212 1942.18 799.587C1950.21 799.28 1958.31 799.03 1966.33 798.613C1974.34 798.161 1982.36 797.708 1990.4 797.256C2006.43 796.277 2022.64 795.393 2038.57 794.158C2054.51 792.904 2070.47 791.651 2086.37 790.397L2098.31 789.47L2110.11 788.413C2117.99 787.721 2125.84 787.028 2133.69 786.335C2100.2 790.399 2065.98 793.683 2031.95 797.207C2017.23 798.119 2002.48 799.03 1987.7 799.94L1965.56 801.334C1958.12 801.725 1950.66 802.096 1943.21 802.487C1928.32 803.267 1913.39 804.048 1898.43 804.827C1883.4 805.477 1868.34 806.109 1853.23 806.758C1855.48 806.581 1857.75 806.387 1860 806.21C1855.47 806.49 1850.91 806.77 1846.39 807.051C1840.49 807.306 1834.61 807.597 1828.66 807.815L1810.83 808.432C1798.94 808.867 1787.01 809.302 1775.06 809.718C1753.72 810.743 1733.03 812.419 1712.52 814.572C1708.94 814.706 1705.41 814.86 1701.86 814.94C1708.31 813.838 1711.26 812.89 1698.1 812.736C1669.88 811.938 1641.22 813.21 1611.19 813.746C1581.26 814.539 1550.06 814.707 1517.9 812.924C1501.04 811.826 1478.5 812.191 1454.09 812.667C1447.43 811.887 1443.96 812.242 1440.84 812.859C1435.58 812.925 1430.24 813.008 1424.91 813.073C1411.89 812.959 1398.83 812.807 1386.02 813.098C1398.71 813.37 1411.84 813.25 1424.91 813.073C1429.8 813.128 1434.65 813.145 1439.48 813.143C1436.16 813.848 1432.65 814.694 1425.43 814.633C1515.21 816.849 1608.8 817.695 1701.88 814.94C1696.55 815.789 1688.85 816.685 1685.7 817.228C1694.67 816.337 1703.63 815.519 1712.54 814.555C1727.53 813.994 1742.48 813.415 1757.42 812.781C1772.37 812.202 1787.14 811.2 1801.95 810.345C1793.31 811.242 1785.37 812.335 1778.56 813.703C1864.19 810.882 1949.02 805.056 2031.98 797.172C2111.28 791.699 2189.12 784.831 2264.59 775.768C2253.82 776.479 2243.09 777.283 2232.34 778.177C2221.46 778.941 2210.55 779.777 2199.65 780.669C2188.76 781.56 2177.84 782.524 2166.93 783.543C2155.87 784.432 2144.8 785.356 2133.72 786.317L2155.27 783.837L2166.04 782.597L2176.67 781.226L2219.25 775.818C2226.39 774.966 2233.39 773.984 2240.38 773.002L2261.42 770.111C2275.46 768.202 2289.56 766.331 2303.33 764.216L2344.99 758.135C2358.68 755.964 2372.4 753.831 2386.2 751.735L2396.55 750.159L2406.72 748.47L2427.15 745.13L2447.67 741.846L2467.89 738.375C2454.06 745.101 2430.34 751.826 2423.82 757.868C2427.33 759.593 2463.56 753.866 2444.74 758.64C2436.39 760.983 2428.11 763.108 2420 765.072C2411.75 766.961 2403.59 768.615 2395.74 770.201C2380 773.355 2365.39 776.128 2351.98 778.504C2338.65 780.974 2326.98 783.382 2317.43 786.159C2307.87 788.935 2300.2 791.837 2295.27 795.666C2294.6 796.602 2300.47 797.203 2309.32 797.677C2313.73 797.905 2318.91 798.111 2324.36 798.285C2329.8 798.459 2335.46 798.546 2340.98 798.685C2363.04 799.223 2382.51 800.005 2369.18 803.239C2357.48 805.502 2341.09 808.68 2321.24 811.721C2301.47 814.817 2278.9 818.519 2254.78 821.608C2240.39 822.981 2225.7 824.586 2210.51 826.291C2208.42 826.289 2205.85 827.244 2202.52 828.367C2189.27 829.853 2176.19 831.342 2163.57 832.767C2150.92 834.173 2138.73 835.515 2127.11 836.502C2103.95 838.606 2083.84 840.274 2069.35 841.227C2058.49 841.827 2047.76 842.412 2037.04 842.996C2031.05 842.812 2025.73 842.367 2021.31 841.628C2015.28 842.938 2009.04 844.026 2002.68 844.947C1974 846.365 1945.62 847.77 1917.47 849.143C1901.3 849.007 1885.17 848.707 1869.38 848.705C1870.08 849.411 1873.09 850.251 1870.52 851.115C1852.94 851.955 1835.27 852.429 1817.72 853.087C1800.16 853.691 1782.68 854.387 1765.1 854.771C1750.51 854.281 1736.94 853.336 1724.75 851.76C1715.86 853.71 1703.53 854.848 1689.14 855.729C1674.75 856.538 1658.32 857.144 1641.08 857.279C1623.83 857.433 1605.85 857.408 1588.36 857.448C1570.86 857.378 1553.85 857.28 1538.56 857.543L1538.67 857.782C1523.24 857.806 1507.75 857.591 1492.19 857.411C1476.62 857.194 1460.99 857.104 1445.26 856.702C1440.06 855.986 1435.12 855.165 1430.51 854.24C1422.75 855.19 1414.57 855.111 1410.7 855.586C1385.68 854.282 1364.67 852.214 1343.7 850.329C1339.83 850.786 1332.34 852.616 1324.14 852.409C1307.79 851.612 1291.93 851.208 1276.43 850.738C1258.35 849.727 1240.07 848.767 1221.65 847.586C1159.65 843.625 1099.25 838.363 1040.22 832.215C1038.69 831.275 1038.69 830.218 1038.66 829.178C1028.77 829.833 1016.3 827.741 1007.65 827.835C1009.4 827.613 1010.61 827.289 1010.62 826.742C982.487 826.365 978.673 823.376 954.798 820.526C949.285 820.113 943.592 820.646 938.01 820.451C935.41 820.111 932.794 819.788 930.145 819.447C905.308 812.549 877.322 811.354 846.962 808.11C817.464 803.787 788.228 799.286 759.241 794.481C736.125 790.824 729.692 786.784 715.115 782.757Z" fill="#F8ECE0"/>
<path d="M1473.86 850.408L1451.66 849.85L1429.49 849.074C1414.74 848.545 1400.03 848.053 1385.36 847.452C1401.11 847.562 1415.94 847.163 1430.48 847.36C1437.75 847.458 1444.93 847.683 1452.14 848.2C1459.34 848.625 1466.54 849.324 1473.86 850.408Z" fill="#FAF5EF"/>
<path d="M2260.76 798.699C2274.02 798.945 2287.66 798.086 2302.03 796.821C2232.29 807.798 2161.66 817.445 2088.26 825.51L2087.96 825.285C2102.33 823.327 2118.58 821.478 2135.39 819.638C2139.59 819.187 2143.82 818.719 2148.07 818.251L2160.72 816.717C2169.12 815.687 2177.49 814.639 2185.66 813.569C2193.8 812.499 2201.74 811.424 2209.29 810.306C2216.84 809.207 2223.82 807.896 2230.32 806.649C2243.26 804.136 2253.89 801.507 2260.76 798.699Z" fill="#FAF5EF"/>
<path d="M1554.8 851.053C1553.71 851.325 1552.31 851.591 1550.85 851.837C1550.75 851.835 1550.68 851.834 1550.57 851.832C1551.73 851.489 1553.16 851.242 1554.8 851.053Z" fill="#FAF5EF"/>
<path d="M2334.18 741.148C2336.23 740.766 2338.21 740.402 2340.24 740.02C2325.95 743.529 2310.86 746.623 2295.77 749.716C2301.41 748.234 2307.57 746.799 2314.09 745.406C2317.38 744.72 2320.71 744.034 2324.07 743.331C2327.4 742.608 2330.78 741.887 2334.18 741.148Z" fill="#FAF5EF"/>
<path d="M2495.54 707.529C2509.36 703.574 2522.95 699.505 2536.45 695.416L2556.2 689.091L2566.07 685.937L2575.62 682.65C2611.07 672.422 2644.78 661.889 2678.62 651.996C2651.68 662.582 2622.32 672.358 2591.72 681.599C2561.3 690.936 2528.65 699.337 2495.54 707.529Z" fill="#FAF5EF"/>
<path d="M2395.86 778.195C2410.82 776.194 2426.57 774.444 2442.04 772.434C2427.71 775.085 2413.46 777.738 2399.25 780.373C2400.84 779.218 2397.21 778.804 2395.86 778.195Z" fill="#FAF5EF"/>
<path d="M2205.78 765.805C2209.06 765.301 2212.34 764.796 2215.58 764.291C2207.96 766.174 2200.28 768.037 2192.64 769.919C2195.13 768.999 2201.57 767.241 2205.78 765.805Z" fill="#FAF5EF"/>
<path d="M2549.13 750.262C2544.05 751.407 2538.98 752.535 2533.93 753.663C2528.79 754.734 2523.67 755.806 2518.55 756.878C2523.71 755.133 2528.57 753.29 2532.97 751.202C2537.89 751.311 2543.35 750.939 2549.13 750.262Z" fill="#FAF5EF"/>
<path d="M2692.53 707.74C2698.56 705.7 2704.49 703.695 2710.3 701.743C2716.22 699.81 2722.03 697.894 2727.6 695.974C2721.37 698.593 2714.64 701.076 2707.95 703.596C2701.22 706.096 2694.57 708.653 2687.68 711.078C2689.5 709.471 2690.58 708.087 2692.53 707.74Z" fill="#FAF5EF"/>
<path d="M801.99 753.68C822.24 755.56 841.72 757.3 860.01 759C884.48 761.09 906.66 763.27 925.89 765.1C938.78 765.94 951.06 766.74 962.86 767.52C974.7 768.18 986.1 768.84 997.28 769.49C1019.6 770.84 1041.12 771.79 1063.42 772.87C1085.71 774.01 1108.95 774.75 1134.66 775.89C1147.55 776.34 1161.07 776.79 1175.49 777.26C1182.7 777.5 1190.09 777.74 1197.74 778.01C1205.39 778.22 1213.29 778.43 1221.49 778.64C1269.6 779.3 1254.3 778.01 1219.08 776.28C1183.79 774.58 1128.65 771.68 1096.46 769.68C1010.76 766.51 920.77 760.18 832.48 751.75C819.88 750.55 807.28 749.3 794.75 748.01C732.33 743.62 673.03 736.24 615.96 723.69C637.41 729.04 659.05 733.97 680.93 738.57C707.04 742.99 733.63 746.43 760.65 748.82C786 752.18 797.07 753.56 801.99 753.68Z" fill="#FCF9F9"/>
<path d="M1933.71 769.9C1924.1 770.35 1915.87 770.65 1907.67 770.95C1906.25 771.1 1903.7 771.58 1900.57 771.76C1894.27 772.09 1888.22 772.48 1882.32 772.83C1904.47 771.58 1925.92 770.35 1946.93 769.16C1944.89 769.22 1942.89 769.22 1941.1 769.22C1938.26 769.57 1935.13 769.75 1933.71 769.9Z" fill="#FCF9F9"/>
<path d="M451.44 670.62C463.53 675.61 475.7 680.27 487.93 684.78C474.71 679.49 461.6 673.81 448.56 667.69C441.13 664.67 432.28 661.09 425.14 657.77C418.99 655.02 412.83 652.24 406.71 649.46C413.27 652.87 419.86 656.21 426.49 659.56C431.38 662.01 440.23 665.84 451.44 670.62Z" fill="#FCF9F9"/>
<path d="M186.8 1.12004L191.79 28.31C190.73 25.65 189.82 23.56 189.06 21.98C187.57 19.02 186.51 17.83 185.71 18.07C184.91 18.31 184.4 20.01 184 22.82C183.56 25.45 183.24 28.92 182.87 32.95C182.22 29.57 181.63 26.38 181.09 23.39C180.54 20.01 180.03 16.82 179.56 13.8C179.38 12.6 179.23 11.44 179.09 10.3C178.94 9.31004 178.84 8.36004 178.73 7.43004C178.62 6.77004 178.55 6.12004 178.51 5.49004C178.33 3.94004 178.15 2.44004 178.04 1.04004H212.68L186.8 1.12004Z" fill="#FCF9F9"/>
<path d="M244.16 567.45C94.55 440.92 0 272.95 0 112.89C0 102.38 0.4 57.47 1.13 1.03003H135.52C136.14 13.76 135.63 20.96 133.77 17.37C136.94 33.35 140.8 28.84 144.7 48.38C148.09 66.96 151.51 85.67 154.39 101.35C190.59 235.26 172.93 83.96 164.59 33.44C175.74 44.91 182.58 111.42 189.79 104.7C192.89 101.8 195.98 98.9 196.71 90.84L185.82 57.38C175.69 -14.39 195.65 62.25 200.21 50.39C200.21 50.39 204.95 -10.56 211.65 76.98C218.68 168.67 227.89 288.9 236.16 396.85C236.49 400.91 236.74 405.43 236.89 411.52C239.57 456.01 227.66 526.97 244.16 567.45Z" fill="#FCF9F9"/>
<path d="M487.9 684.75C529.53 701.39 572.07 714.06 615.88 723.68C572.47 712.84 529.86 700.17 487.9 684.75Z" fill="#FCF9F9"/>
<path d="M346.14 630.61C350.26 633.3 379.37 635.96 383.56 638.62C391.24 642.26 398.93 645.88 406.65 649.44C394.78 643.28 357.94 637.03 346.14 630.61Z" fill="#FCF9F9"/>
<path d="M2192.95 742.15C2214.11 740.3 2234.29 737.91 2253.88 735.99C2234.18 737.81 2213.64 740.2 2192.95 742.15Z" fill="#FCF9F9"/>
<path d="M2175.25 745.04C2190.99 743.55 2206.83 742.23 2222.27 740.59C2237.64 738.89 2252.97 737.18 2268.27 735.48C2251.44 737.03 2234.11 738.86 2216.52 740.8L2175.25 745.04Z" fill="#FCF9F9"/>
<path d="M2233.38 745.73C2240.08 744.92 2246.89 744.09 2253.56 743.31C2248.13 743.91 2242.48 744.53 2236.69 745.19C2235.93 745.22 2234.84 745.46 2233.38 745.73Z" fill="#FCF9F9"/>
<path d="M2157.44 753.2C2161.74 752.81 2166.04 752.42 2170.37 752.03C2168.19 752.15 2166.29 752.24 2164.76 752.21C2162.32 752.57 2159.92 752.9 2157.44 753.2Z" fill="#FCF9F9"/>
<path d="M2296.46 727.15C2292.3 727.66 2288.08 728.14 2283.71 728.64C2287.42 728.25 2291.07 727.77 2294.71 727.32C2287.57 728.16 2280.32 729.02 2273 729.86C2257.27 731.71 2241.17 733.62 2225.25 735.6C2213.64 737.06 2201.8 736.92 2185.85 739.39C2196.55 738.37 2207.59 737.57 2218.23 736.4C2228.93 735.26 2239.71 734.1 2250.49 732.96C2261.27 731.76 2272.09 730.6 2282.91 729.43C2288.26 728.8 2293.76 728.26 2299.04 727.58L2314.81 725.46C2317.07 724.71 2328.69 723.4 2333.6 722.35C2324.72 723.46 2316.6 724.44 2308.58 725.52C2304.5 726.07 2300.5 726.61 2296.46 727.15Z" fill="#FCF9F9"/>
<path d="M2380.63 716.42C2376.77 716.9 2372.54 717.5 2368.28 718.15C2372.29 717.59 2376.4 717.02 2380.63 716.42Z" fill="#FCF9F9"/>
<path d="M2299.41 726.67C2297.84 726.88 2296.24 727.09 2294.68 727.3C2295.18 727.24 2295.77 727.18 2296.28 727.12C2297.37 726.97 2298.39 726.82 2299.41 726.67Z" fill="#FCF9F9"/>
<path d="M1982.33 766.88C1995.08 765.98 2007.68 765.12 2020.25 764.22C2007.43 765.12 1993.55 765.98 1982.3 766.85L1982.33 766.88Z" fill="#FCF9F9"/>
<path d="M2170.26 743.52C2158.72 744.42 2147.02 745.55 2135.37 746.72C2123.75 747.94 2111.84 748.87 2100.37 749.83C2110.93 748.99 2121.53 748.25 2131.84 747.32C2142.11 746.36 2152.34 745.41 2162.47 744.48C2165.05 744.15 2167.64 743.85 2170.26 743.52Z" fill="#FCF9F9"/>
<path d="M2021.92 764.1C2023.05 764.01 2024.22 763.95 2025.38 763.86L2046.76 762.37L2067.92 760.64C2062.46 760.94 2057.39 761.18 2052.81 761.3C2046.1 762.31 2034.63 763.24 2021.92 764.1Z" fill="#FCF9F9"/>
<path d="M2033.58 756.04L1961.17 761.33C1935.17 762.82 1908.47 764.32 1882.5 765.63C1899.55 764.31 1918.2 763 1937.17 761.83C1924.83 762.55 1912.41 763.26 1899.99 763.98C1890.44 764.43 1880.9 764.88 1874.2 764.99C1886.37 764.33 1896.49 763.74 1905.96 763.02C1924.83 761.97 1943.58 761.02 1962.05 759.82C1980.4 758.53 1998.65 757.28 2016.9 755.99C1996.75 756.56 1967.95 759.7 1944.97 760.44C1964.89 759.12 1985.06 757.48 2005.68 756.08C2015.95 755.36 2026.29 754.62 2036.67 753.9C2047.01 753.12 2057.25 752.2 2067.52 751.36C2088.06 749.63 2108.6 747.92 2128.63 746.07C2148.45 743.98 2167.89 741.86 2186.65 739.68C2173.07 741 2159.52 742.28 2145.9 743.56C2139.05 744.19 2132.24 744.82 2125.39 745.44C2118.44 745.95 2111.44 746.49 2104.41 746.99C2109.69 746.6 2115.67 746.03 2121.57 745.5C2102.52 747.08 2084.64 748.61 2064.86 750.28C2064.9 750.25 2064.97 750.25 2065.04 750.22C2077.57 749.17 2090.1 748.07 2102.52 746.93C2114.94 745.82 2127.29 744.63 2139.23 743.17C2168.37 739.91 2150.7 740.36 2138.83 741.56C2124.01 743.17 2109.07 744.31 2094.47 745.5C2079.87 746.66 2065.44 747.83 2051.2 749C2037 750.22 2022.61 751.12 2008.41 752.17C1994.17 753.19 1979.93 754.26 1965.69 755.43C1952.43 756.68 1938.81 757.61 1925.19 758.57L1884.11 761.38C1868.52 762.31 1846.45 763.17 1837.45 763.83C1813.71 765.65 1789.09 767.54 1763.3 769C1750.3 769.75 1737.19 770.49 1723.86 771.27C1710.46 771.99 1696.73 772.53 1682.74 773.12C1670.17 773.57 1657.43 774.05 1644.5 774.52C1631.57 774.91 1618.49 775.33 1605.38 775.72C1579.16 776.62 1552.61 777.06 1526.68 777.6C1474.78 778.41 1424.56 778.44 1383.18 776.76C1400.08 777.78 1432.24 777.9 1449.47 778.67L1443.57 779.03C1447.36 779.42 1460.43 779.54 1467.2 779.75C1464.25 779.93 1460.87 779.84 1457.48 779.72C1460.87 779.84 1460.87 779.84 1464.25 779.93C1438.87 780.32 1389.48 779.21 1394.44 780.44C1399.35 781.79 1444.33 781.79 1476.93 781.9C1449.36 782.95 1416.36 782.47 1387.81 782.56C1394.62 782.86 1398.37 783.25 1408.17 783.37C1420.48 783.49 1432.82 783.64 1445.13 783.7C1457.44 783.58 1468.41 783.28 1479.59 783.82H1482.83C1484.98 783.76 1487.02 783.58 1489.2 783.55C1499 783.52 1501.11 783.85 1511.89 783.46C1512 783.52 1511.64 783.61 1511.02 783.64C1514.3 783.49 1519.47 783.58 1523.11 783.34C1523.33 783.49 1523.55 783.64 1524.35 783.73C1548.13 783.52 1572.13 783.31 1596.46 782.86C1603.67 782.71 1610.85 782.56 1617.88 782.41C1623.88 782.23 1630 782.05 1636.38 781.93C1639.55 781.84 1642.24 781.48 1643.7 781.36C1652 781.36 1660.23 781.21 1669.96 781.03C1671.41 780.91 1674.58 780.79 1677.5 780.55C1679.32 780.61 1681.28 780.64 1683.32 780.67C1695.45 780.28 1707.47 779.89 1719.34 779.53L1719.27 779.5C1736.06 778.75 1758.31 778.07 1774.81 777.23H1774.85L1789.71 776.78C1788.9 776.72 1788.61 776.57 1788.36 776.45C1786.79 776.57 1784.86 776.69 1782.97 776.78C1786.1 776.57 1788.87 776.36 1791.13 776.12C1795.75 776.21 1800.89 776.15 1806.42 776C1819.9 775.37 1833.41 774.72 1847.03 774.09C1848.12 773.94 1847.07 773.85 1846.89 773.76C1852.89 773.61 1859.05 773.43 1865.17 773.28C1876.09 772.8 1886.98 772.2 1898.02 771.64C1900.57 771.43 1903.12 771.19 1905.63 770.92C1907.16 770.95 1909.09 770.98 1911.28 770.92C1915.39 770.71 1919.54 770.5 1923.73 770.29C1929.34 769.99 1937.21 769.54 1946.28 769C1950.79 768.73 1955.67 768.43 1960.7 768.13C1965.72 767.77 1970.9 767.38 1976.14 766.99C1977.67 766.78 1978.84 766.6 1979.64 766.57C1985.65 766.18 1991.47 765.79 1997.12 765.41C2016.46 763.92 2034.34 762.51 2044.25 761.68C2056.01 760.51 2017.59 761.71 2019.81 761.08C2025.93 759.82 2035.07 758.99 2046.65 757.97C2058.16 756.87 2072.22 755.67 2088.21 753.91C2097.02 753.01 2081.5 754.21 2080.92 753.94C2082.12 753.67 2083.8 753.43 2085.66 753.13L2104.49 751.4L2101.79 751.61C2096.18 752.09 2090.83 752.6 2085.91 753.04C2091.59 752.2 2099.5 751.28 2105.58 750.41C2081.54 752.24 2057.58 754.13 2033.58 756.04Z" fill="#FCF9F9"/>
<path d="M2107.66 757.44C2113.56 756.96 2119.46 756.48 2125.43 756.04C2119.38 756.4 2113.34 756.79 2107.44 757.15C2107.62 757.2 2108.68 757.26 2107.66 757.44Z" fill="#FCF9F9"/>
<path d="M3133.6 112.89C3133.6 283.01 3035.96 441.13 2868.64 572.53C2883.76 558.99 2894.87 545.13 2903.35 531.18C2916.03 510.06 2922.51 488.69 2925.79 467.36C2930.81 244.23 2933.03 134.25 2933.62 76.98C2934.09 27.05 2933.33 139.6 2932.05 129.71C2929.32 108.38 2924.04 87.16 2916.9 65.98C2909.8 44.8 2900.77 47.64 2889.99 26.6C2887.29 21.34 2884.49 16.05 2881.54 10.82L2878.44 5.41002L2875.78 1.02002H3132.58C3133.27 71.15 3133.6 103 3133.6 112.89Z" fill="#FCF9F9"/>
<path d="M253.7 574.17C262.37 580.56 260.62 574.29 269.8 582.24C290.6 594.01 301.85 611.55 323.34 621.38C301.6 611.22 281.75 598.58 260.7 586.45C251.96 578.77 262.37 580.18 253.7 574.17Z" fill="#FCF9F9"/>
<path d="M2932.05 129.71C2929.32 108.41 2924.04 87.22 2916.9 66.04C2909.8 44.86 2900.77 47.72 2889.99 26.66C2887.29 21.4 2884.49 16.08 2881.54 10.85C2880.52 9.02999 2879.46 7.22999 2878.44 5.40999C2877.57 3.94999 2876.66 2.47999 2875.78 0.98999C1988.07 1.02999 1100.37 1.02999 212.66 1.02999C204.03 1.05999 195.43 1.08999 186.8 1.11999C188.48 10.2 190.11 19.32 191.79 28.4C190.73 25.74 189.82 23.62 189.06 22.04C187.57 19.08 186.51 17.86 185.71 18.1C184.91 18.34 184.4 20.04 184 22.85C183.56 25.48 183.24 28.97 182.87 33.01C182.22 29.63 181.63 26.41 181.09 23.42C180.54 20.04 180.03 16.82 179.56 13.8C179.38 12.6 179.23 11.44 179.09 10.3C178.94 9.30999 178.84 8.35999 178.73 7.42999C178.62 6.76999 178.55 6.11999 178.51 5.48999C178.33 3.93999 178.15 2.43999 178.04 1.03999C163.87 1.03999 149.71 1.03999 135.54 1.03999C136.16 13.77 135.65 20.97 133.79 17.38C136.96 33.36 140.82 28.85 144.72 48.42C148.11 67.03 151.53 85.77 154.41 101.48C190.61 235.96 172.95 84.15 164.61 33.51C175.75 45.01 182.6 111.76 189.81 105.07C192.91 102.17 196 99.3 196.73 91.21C193.09 80.01 189.48 68.77 185.84 57.57C175.71 -14.46 195.67 62.47 200.23 50.61C200.23 50.61 204.96 -10.61 211.66 77.35C218.69 169.55 217.67 291.81 225.94 400.54C226.27 404.63 212.76 405.35 212.9 411.48C215.6 456.27 219.53 511.12 236.03 552.38C238 557.31 240.44 562.09 243.53 566.66C246.48 570.87 251.94 577.45 257.15 583.72C286.72 602.87 341.3 621.1 371.09 638.52C382.89 645.42 394.73 652.17 406.56 658.81C412.72 661.86 418.83 664.9 425.03 667.89C432.17 671.5 441.02 675.42 448.45 678.74C461.49 685.4 474.64 691.65 487.82 697.47C529.78 714.59 572.35 728.93 615.76 741.42C672.87 756.03 732.12 765.38 794.58 771.6C807.11 773.24 819.67 774.86 832.28 776.41C920.56 787.31 1010.63 795.74 1096.29 800.43C1128.48 803.06 1183.66 806.85 1218.95 809.07C1254.17 811.28 1269.5 812.8 1221.35 811.55C1213.2 811.22 1205.29 810.92 1197.65 810.62C1190 810.23 1182.57 809.87 1175.39 809.54C1160.97 808.82 1147.46 808.17 1134.57 807.48C1108.85 805.93 1085.58 804.76 1063.29 803.18C1041 801.66 1019.44 800.28 997.15 798.43C985.97 797.56 974.57 796.64 962.73 795.71C950.93 794.66 938.69 793.56 925.8 792.39C906.57 790.12 884.39 787.31 859.92 784.53C841.64 782.32 822.12 780.05 801.9 777.57C796.98 777.33 785.91 775.6 760.49 771.44C733.47 768.24 706.92 763.94 680.77 758.62C717.37 767.61 754.52 775.68 792.4 783.3C805.98 785 818.91 786.62 831.88 788.26C987.47 807.5 1174.15 823.22 1389.11 827.28C1403.57 827.55 1417.95 827.76 1432.3 827.91C1432.56 827.91 1432.81 827.94 1433.03 827.94C1448.43 828.87 1438.86 829.88 1382.55 830.24C1359.57 831.08 1390.2 833.56 1313.35 832.63C1323.8 833.53 1336.99 834.15 1351.38 834.75C1365.8 835.29 1381.39 835.88 1396.83 836.09C1427.6 836.51 1457.43 836.63 1474.58 835.97C1503.61 838 1585.45 837.76 1660.58 835.52C1735.79 833.52 1804.04 829.48 1809.4 831.75C1916.44 823.03 1994.78 816.12 2071.04 808.71C2147.01 801.15 2221.05 793.08 2312.98 777.43C2320.23 776.2 2327.15 774.98 2333.67 773.87C2340.19 772.73 2346.23 771.57 2351.98 770.52C2363.46 768.34 2373.62 766.4 2382.54 764.72C2400.21 761.1 2412.99 758.39 2422.24 756.32C2440.6 752.17 2444.35 750.61 2443.25 750.19C2440.92 749.26 2418.56 752.22 2447.84 744.22C2503.53 732.75 2555.61 719.18 2599.39 705.8C2643.24 692.35 2678.86 679.24 2704.13 668.93C2716.37 664.57 2726.86 660.41 2735.96 657.13C2740.55 655.46 2744.67 653.99 2748.24 652.68C2751.73 651.37 2754.76 650.26 2757.23 649.42C2767.07 646.04 2768.05 646.64 2754.06 653.24C2797 636.12 2810.5 617.42 2840.8 597.13C2841.24 596.83 2841.71 596.56 2842.11 596.26C2852.31 589.12 2861.16 581.92 2868.95 574.66C2884.07 560.53 2895.18 546.25 2903.63 531.99C2916.3 510.39 2922.78 488.82 2926.06 467.39C2931.09 244.02 2933.31 134.07 2933.89 76.77C2934.09 27.05 2933.33 139.6 2932.05 129.71ZM2004.59 796.31C1997.27 796.97 1989.91 797.6 1982.52 798.25L1982.48 798.22C1984.96 798.01 1987.54 797.74 1990.2 797.5C1990.57 797.47 1990.97 797.44 1991.37 797.38C1993.66 797.2 1996.03 796.96 1998.43 796.78C2002.44 796.42 2006.59 796.06 2010.67 795.7C2008.96 795.85 2007.21 796.03 2005.46 796.18C2005.17 796.25 2004.88 796.25 2004.59 796.31ZM2046.95 792.52C2041.77 792.97 2036.57 793.45 2031.39 793.89C2033.91 793.62 2036.31 793.41 2038.57 793.14C2039.66 793.02 2040.75 792.93 2041.77 792.81C2043.52 792.63 2045.2 792.42 2046.73 792.24C2047.49 792.12 2048.22 792.03 2048.95 791.94C2049.68 791.82 2050.33 791.73 2050.99 791.61C2051.24 791.58 2051.46 791.55 2051.68 791.49C2052.12 791.43 2052.55 791.34 2052.99 791.28C2057.58 791.07 2062.64 790.74 2068.11 790.32C2061.04 791.11 2053.97 791.83 2046.95 792.52ZM2101.98 780.3C2102.89 780.21 2103.8 780.12 2104.71 780.03C2098.41 780.75 2092.14 781.46 2085.84 782.18C2083.98 782.51 2082.31 782.81 2081.11 783.11C2081.69 783.35 2097.21 781.83 2088.39 782.9C2072.4 785.02 2058.38 786.51 2046.84 787.86C2035.25 789.12 2026.11 790.13 2019.99 791.54C2017.77 792.2 2056.2 790.34 2044.43 791.72C2034.53 792.8 2016.64 794.56 1997.3 796.41C1991.66 796.86 1985.87 797.37 1979.82 797.87C1979.06 797.9 1977.86 798.11 1976.33 798.32C1971.08 798.8 1965.91 799.28 1960.92 799.72C1955.89 800.11 1951.01 800.5 1946.46 800.83C1937.39 801.52 1929.53 802.09 1923.92 802.47C1919.73 802.74 1915.61 803.01 1911.46 803.31C1915.87 803.1 1920.35 802.86 1925.08 802.56C1926.03 802.53 1926.98 802.47 1927.96 802.41C1928.18 802.41 1928.4 802.38 1928.65 802.38C1930.36 802.29 1932.11 802.17 1933.93 802.05C1935.35 801.87 1938.49 801.66 1941.33 801.27C1943.15 801.24 1945.11 801.21 1947.15 801.12C1926.14 802.64 1904.72 804.2 1882.54 805.75C1888.44 805.27 1894.49 804.82 1900.75 804.37C1903.89 804.13 1906.47 803.65 1907.86 803.44C1909.06 803.38 1910.22 803.32 1911.43 803.26C1909.24 803.32 1907.31 803.35 1905.78 803.29C1903.27 803.59 1900.75 803.89 1898.17 804.13C1887.13 804.88 1876.24 805.62 1865.32 806.25C1859.2 806.46 1853.04 806.73 1847.07 806.94C1847.25 807.03 1848.31 807.12 1847.22 807.27C1833.6 808.08 1820.08 808.88 1806.61 809.66C1801.07 809.87 1795.94 809.96 1791.31 809.93C1789.05 810.17 1786.25 810.44 1783.15 810.68C1785.05 810.56 1786.98 810.47 1788.54 810.29C1788.8 810.41 1789.05 810.56 1789.89 810.65C1784.94 810.83 1779.99 811.01 1775.03 811.22H1775C1758.46 812.27 1736.17 813.1 1719.38 814C1719.42 814 1719.42 814.03 1719.45 814.03C1707.55 814.48 1695.56 814.93 1683.4 815.4C1681.36 815.4 1679.43 815.34 1677.57 815.34C1674.66 815.61 1671.49 815.73 1670.03 815.88C1660.31 816.12 1652.11 816.3 1643.81 816.33C1642.35 816.42 1639.66 816.81 1636.45 816.93C1630.08 817.11 1623.96 817.29 1617.95 817.5C1610.89 817.68 1603.75 817.83 1596.54 817.98C1572.21 818.52 1548.13 818.7 1524.39 818.88C1523.59 818.79 1523.37 818.64 1523.15 818.46C1519.62 818.73 1514.66 818.64 1511.39 818.76C1511.71 818.7 1511.9 818.67 1511.9 818.64V818.61C1501.12 819 1498.97 818.64 1489.21 818.67C1487.02 818.7 1484.98 818.88 1482.83 818.94C1481.74 818.94 1480.68 818.94 1479.59 818.97C1468.37 818.37 1457.45 818.64 1445.14 818.7C1432.79 818.61 1420.44 818.37 1408.13 818.22C1398.34 818.01 1394.59 817.59 1387.78 817.23C1416.33 817.32 1449.36 817.98 1476.93 816.96C1444.34 816.75 1399.36 816.51 1394.4 815.08C1389.45 813.77 1438.87 815.2 1464.26 814.87C1462.29 814.81 1461.49 814.81 1460.47 814.72C1462.84 814.78 1465.13 814.81 1467.21 814.69C1460.43 814.45 1447.36 814.27 1443.57 813.85C1445.54 813.73 1447.5 813.61 1449.47 813.49C1432.24 812.65 1400.05 812.35 1383.15 811.19C1424.6 813.19 1474.78 813.37 1526.72 812.59C1552.65 812.05 1579.27 811.54 1605.5 810.59C1618.61 810.17 1631.68 809.69 1644.65 809.25C1657.58 808.71 1670.32 808.17 1682.89 807.64C1696.87 806.95 1710.6 806.32 1724.04 805.49C1737.37 804.59 1750.48 803.73 1763.49 802.86C1789.31 801.13 1813.93 798.95 1837.71 796.79C1846.71 796.01 1868.78 794.91 1884.37 793.77C1898.06 792.63 1911.75 791.47 1925.45 790.3C1939.11 789.1 1952.73 787.97 1965.95 786.48C1980.22 785.07 1994.43 783.73 2008.7 782.45C2022.91 781.13 2037.33 779.97 2051.5 778.45C2065.77 776.99 2080.16 775.52 2094.8 774.06C2109.37 772.51 2124.3 771.07 2139.13 769.13C2151 767.64 2168.66 766.8 2139.53 770.77C2127.62 772.53 2115.27 774 2102.85 775.37C2090.43 776.8 2077.9 778.15 2065.37 779.49C2065.26 779.49 2065.19 779.52 2065.16 779.55C2084.93 777.46 2102.81 775.55 2121.86 773.54C2119.64 773.81 2117.46 774.05 2115.27 774.32C2113.45 774.5 2111.7 774.74 2109.95 774.92C2115.23 774.44 2120.48 773.93 2125.72 773.43C2132.57 772.65 2139.42 771.85 2146.23 771.04C2159.85 769.43 2173.43 767.81 2186.98 766.17C2168.26 768.86 2148.81 771.46 2129 774.03C2108.97 776.36 2088.43 778.48 2067.89 780.66C2057.62 781.71 2047.38 782.84 2037.04 783.83C2026.66 784.76 2016.32 785.68 2006.05 786.61C1985.43 788.4 1965.25 790.4 1945.3 792.02C1968.28 790.97 1997.09 787.24 2017.26 786.31C1999.02 787.92 1980.77 789.51 1962.41 791.12C1943.99 792.64 1925.23 793.87 1906.29 795.18C1896.86 796.05 1886.73 796.82 1874.57 797.6C1881.23 797.39 1890.78 796.82 1900.35 796.26C1912.77 795.36 1925.19 794.47 1937.54 793.54C1918.53 795.03 1899.88 796.62 1882.84 798.2C1908.8 796.53 1935.46 794.64 1961.5 792.67C1985.65 790.52 2009.8 788.31 2033.94 786.1C2057.94 783.71 2081.91 781.35 2105.98 778.93C2099.9 779.95 2092 781.05 2086.32 782.04C2091.01 781.52 2096.37 780.9 2101.98 780.3ZM2108.1 786.27C2108.28 786.24 2108.31 786.21 2108.31 786.18H2108.28C2108.28 786.15 2108.24 786.15 2108.24 786.12C2108.17 786.09 2108.1 786.09 2108.02 786.06C2107.88 786.03 2107.69 786 2107.62 785.97C2113.52 785.49 2119.57 784.95 2125.61 784.48C2119.75 785.08 2113.92 785.71 2108.1 786.27ZM2100.59 778.54C2112.03 777.34 2123.97 776.15 2135.59 774.66C2147.25 773.23 2158.94 771.79 2170.48 770.63C2167.86 771.02 2165.27 771.38 2162.65 771.8C2152.53 772.96 2142.33 774.16 2132.02 775.35C2121.75 776.5 2111.15 777.43 2100.59 778.54ZM2157.66 780.93C2160.14 780.57 2162.54 780.18 2164.95 779.76C2166.51 779.73 2168.41 779.61 2170.56 779.43C2166.26 779.94 2161.92 780.42 2157.66 780.93ZM2233.64 771.52C2235.09 771.22 2236.19 770.92 2236.95 770.89C2242.74 770.08 2248.39 769.31 2253.81 768.56C2247.15 769.51 2240.37 770.53 2233.64 771.52ZM2222.53 766.44C2207.09 768.5 2191.21 770.2 2175.47 772.09C2189.24 770.33 2203.01 768.56 2216.77 766.8C2234.36 764.41 2251.7 762.11 2268.49 760.11C2253.27 762.22 2237.9 764.34 2222.53 766.44ZM2193.17 768.71C2213.86 766.26 2234.4 763.3 2254.1 760.97C2234.51 763.39 2214.33 766.32 2193.17 768.71ZM2315 748.63C2309.75 749.5 2304.47 750.36 2299.23 751.2C2293.95 752.04 2288.48 752.72 2283.09 753.5C2272.31 754.96 2261.5 756.43 2250.72 757.92C2239.94 759.35 2229.16 760.79 2218.45 762.22C2207.78 763.65 2196.78 764.73 2186.07 766.01C2202.02 763.08 2213.86 762.99 2225.48 761.23C2241.39 758.84 2257.49 756.48 2273.22 754.18C2280.58 753.1 2287.79 752.06 2294.97 750.98C2296.53 750.77 2298.1 750.5 2299.67 750.2C2298.65 750.38 2297.63 750.56 2296.57 750.74C2296.02 750.83 2295.48 750.89 2294.97 750.98C2293.15 751.28 2291.33 751.58 2289.5 751.82C2291.94 751.49 2294.35 751.1 2296.72 750.78C2300.76 750.12 2304.76 749.46 2308.77 748.81C2316.78 747.53 2324.9 746.27 2333.79 744.9C2328.87 746.12 2317.26 747.79 2315 748.63ZM2368.5 739.66C2372.76 738.91 2376.99 738.14 2380.88 737.54C2376.66 738.29 2372.54 738.98 2368.5 739.66Z" fill="#FCF9F9"/>
<path d="M487.9 687.02C475.7 682.33 463.53 677.4 451.41 672.14C440.19 667.12 431.34 663.12 426.43 660.52C419.8 657.06 413.25 653.53 406.65 650.03C398.89 646.36 391.21 642.62 383.56 638.86C371.72 633.09 335 627.24 323.34 621.38C336.34 628.1 374.45 634.88 387.75 641.55C400.21 647.82 412.73 654.07 425.41 660.19C431.75 663.45 440.16 667.18 453.24 672.98C525.39 705.37 601.14 729.21 680.9 738.5C659.05 735.03 637.41 730.88 615.96 725.98C572.1 717.41 529.57 704.47 487.9 687.02Z" fill="#FCF9F9"/>
</g>
<defs>
<clipPath id="clip0">
<rect width="3134" height="870.798" fill="white"/>
</clipPath>
</defs>
</svg>
