<svg width="648" height="819" fill="none" xmlns="http://www.w3.org/2000/svg"><g clip-path="url(#clip0)" fill="#EEB168"><path d="M643 648h2l3-3c0-2-2-3-4-3-4-1-4 5-1 6zM526 671l1 1 3 1v-4c-1-2-4 0-4 2zM601 687l1 1h2v-4c-2-1-4 1-3 3zM559 694l1 1 2-2c1-1 0-2-1-3-2 0-3 3-2 4zM526 620l2 1c1 1 2 0 3-1s0-3-1-5c-3-2-6 2-4 5zM623 624h2l3-1c0-2-1-3-3-4-3-1-4 3-2 5zM506 602h3l2-3c1-2-2-4-4-4-4 0-4 6-1 7zM570 703l1 1 2-1c1-1 0-2-1-3-2-1-3 2-2 3zM577 683l2 1c2 0 3-1 3-3 1-2-1-4-3-4-4-1-5 5-2 6zM579 715l1 2c1 2 2 2 4 2s3-3 2-6c-1-4-6-2-7 2zM547 620l1 1 2 1 1-2c0-3-3-2-4 0zM607 672l2 1c2 0 3-1 3-3 1-1-1-3-3-4-4-1-5 5-2 6zM544 565l1 2h3c1 0 2-2 1-4-1-3-5-1-5 2zM587 690l1 1 3-1c1-1 0-2-2-3s-3 2-2 3zM576 659l2 1h2c2 0 1-3 1-4-2-2-5 0-5 3zM611 616l2 1 2-1c1-2-1-3-2-3-2-1-3 2-2 3zM527 576l1 3 3 1c2 0 3-2 3-4-1-4-6-3-7 0zM586 704l2 2h3v-5c-3-2-6 1-5 3zM602 708v1h3v-3c-1-2-4 0-3 2zM534 590l1 2 2-1v-3c-2-2-4 1-3 2zM630 693l2 1 4-2c2-2 0-4-2-5-4-2-6 3-4 6zM555 607h3c1-1 0-2-1-3s-3 1-2 3zM598 657h2l2-2c1-1-1-2-2-3-3-1-4 3-2 5zM614 713l3 1c1 1 3-1 4-2 1-2-1-4-3-5-4-2-6 3-4 6zM554 577l1 1h2v-3c-2-2-4 1-3 2zM572 607l1 1h2v-3c-1-2-4 0-3 2zM615 572h2c1 1 1 0 2-1s0-3-2-3c-2-1-4 2-2 4zM496 628l1 1 3-1-1-3c-2-2-4 1-3 3zM600 605h1l1-2c1-1-1-2-2-2-2 0-2 3 0 4zM528 653l3 1 3-3c1-2-2-4-4-5-4-1-5 6-2 7zM510 666l1 2h3c2 0 2-3 1-5-2-2-6 1-5 3zM502 613h1l3-1c0-2-1-3-3-3-2-1-3 2-1 4zM640 625v1h3v-3c-2-2-4 0-3 2zM637 671l2 1 2-2c1-1-1-3-2-3-3-1-4 2-2 4zM641 610v1l3 1 1-4c-1-2-5 0-4 2zM550 594l2 1h3c2-1 1-4-1-5-2-2-5 2-4 4zM513 587l2 2 3 1c2-1 2-3 1-5-2-3-6 0-6 2zM535 632l1 1h2l1-3c-1-2-4 0-4 2zM619 683l2-1 2-2c0-2-2-3-4-3-3 0-3 5 0 6zM596 617l1 2h2c2 0 2-2 1-3-1-2-4 0-4 1zM629 653v2l2 2c2 0 3-2 3-4 0-3-5-2-5 0zM629 603l1 2 2 1 1-3c0-2-3-1-4 0zM559 654l1 2 2 1c1 0 2-2 1-3 0-2-3-2-4 0zM521 603l1 1 3-1c1-1 0-3-1-4-3-1-4 2-3 4zM536 690l1 1h4c2-1 1-4-1-5-2-3-6 1-4 4zM591 568h2c2 0 2-1 3-3 0-1-2-3-4-3-3-1-3 4-1 6zM607 646l3 1 3-2c1-2-1-4-3-5-3-1-5 4-3 6zM535 704l1 1 3-2c1-1-1-2-2-3-2-1-4 3-2 4zM584 618l1 1h2v-3c-1-2-4 0-3 2zM559 715l2 1 3-1c1-1 0-3-2-4s-4 2-3 4zM616 603l3 1c2 0 3-2 4-3 1-2-2-4-4-5-4-1-5 5-3 7zM566 667v2l2 1 1-3c0-2-3-1-3 0zM500 644h3l2-3c1-3-2-4-5-4-4 0-4 6 0 7zM559 682l3 2 3-1c2-2 1-5-1-6-3-2-6 2-5 5zM550 641l2 1c1 1 2 0 3-1 2-1 0-3-1-4-3-2-5 2-4 4zM586 595l2 1 3-1c2-2 0-4-1-5-4-2-6 2-4 5zM623 637v2l3 2c2 0 3-2 3-4 0-4-6-3-6 0zM507 653l2 2h3c1-1 1-4-1-5-2-2-5 1-4 3zM548 703l1 3 3 2c2 0 3-3 2-5 0-4-5-2-6 0zM543 655v2l3 1 2-3c0-3-4-2-5 0zM589 668l1 2h4v-4c-1-3-5 0-5 2zM572 642l1 1h2v-3c-2-2-4 1-3 2zM615 658v2l4 2c2 0 3-3 2-5 0-4-6-2-6 1zM517 640l2 1 2-2c1-2-1-3-2-4-3 0-4 4-2 5zM567 561l2 1h3c2-1 1-3 0-5-2-3-6 1-5 4zM624 583l1 1h2v-3c-1-2-4 0-3 2zM547 675l1 1 2-2-2-2c-3 0-3 3-1 3zM601 632l3 1c1 1 2 0 3-1 1-2 0-4-2-5-4-2-6 3-4 5zM573 628l1 2h3l1-4c-2-2-5 0-5 2zM603 562l1 1h2v-3c-1-2-3 0-3 2zM579 574v1h2l1-3c-1-2-4 0-3 2zM510 621l1 2 2 1c2 0 3-2 2-4 0-2-4-1-5 1zM567 588l2 3 4 1c2-1 2-4 1-7-2-3-7 0-7 3zM538 607l1 1 3 1c2-1 2-3 1-5-2-3-6 0-5 3zM605 588l2 1 1-2c1-2-1-3-2-3-3 0-3 4-1 4zM635 595l1 2h5c2-1 1-4 0-6-3-4-8 1-6 4zM616 698l1 1h3c1-1 0-3-1-4-2-1-4 2-3 3zM587 642l1 2c1 2 3 2 4 1 2 0 3-3 2-6-2-3-7 0-7 3zM560 622l1 2 4 1c2-1 2-4 1-5-2-4-7 0-6 2zM519 688h2l1-2c1-1-1-2-2-2-3 0-3 3-1 4z"/></g><defs><clipPath id="clip0"><path fill="#fff" transform="translate(496 556)" d="M0 0h152v163H0z"/></clipPath></defs></svg>