<svg width="152" height="164" fill="none" xmlns="http://www.w3.org/2000/svg"><g clip-path="url(#clip0)" fill="#EEB168"><path d="M147.3 92c.3.2 2.3 0 2.3 0 1.5-.3 2-1.5 2.4-2.8.5-2-2-3.3-4-3.4-3.6-.1-3.5 5.1-.8 6.2zM30.8 115.3c0 .3.7 1.4.7 1.4.6.8 1.6.8 2.5.6 1.3-.3 1.4-2.3.8-3.5-1-2.3-4.3-.5-4 1.5zM105.2 131.3l1.2 1c.8.4 1.5 0 2.2-.4 1-.6.5-2.4-.4-3.3-1.6-1.6-3.8 1-3 2.7zM63.2 138.4a9 9 0 001.5.5c1 .2 1.5-.4 2-1.1.8-1-.3-2.5-1.6-3-2-1-3.2 2.2-1.9 3.6zM30 64l1.8 1.2c1.3.6 2.3 0 3.3-.8 1.5-1.2.4-3.6-1.1-4.8-2.7-2-5.5 2-4 4.4zM127.3 68l2 .6c1.1.1 1.9-.7 2.5-1.7 1-1.3-.6-3-2.3-3.7-2.8-1-4 3.1-2.2 4.7zM10.4 46c.3.2 2.5.1 2.5.1 1.6-.2 2.2-1.5 2.6-2.9.6-2-1.9-3.5-4.1-3.7-3.8-.3-3.9 5.3-1 6.6zM74.5 147.7l1.2.6c.8.3 1.5-.2 2-.8.8-.8 0-2.3-1.1-3-1.9-1-3.3 1.8-2.1 3.2zM81 127.7l2.5.4c1.6 0 2.4-1.2 3.1-2.6 1-2-1.4-4-3.6-4.5-4-.8-4.8 4.9-2 6.7zM83.5 158.8c0 .4.8 2.7.8 2.7.7 1.5 2.3 1.7 3.9 1.7 2.3 0 3.1-3.2 2.5-5.6-1-4-6.8-2.2-7.2 1.2zM51.7 64l.2 1.4c.3.8 1 1 2 1.2 1.2.1 1.8-1.5 1.7-2.8-.3-2.3-3.5-1.7-4 .1zM111.2 116.5c.3.2 2.4.5 2.4.5 1.6 0 2.4-1 3-2.3 1-1.8-1.2-3.8-3.3-4.4-3.6-.8-4.6 4.5-2 6.2zM48.2 9c0 .4.9 1.8.9 1.9.7 1 1.8 1 2.9.8 1.6-.3 1.8-2.6 1.1-4.2-1.1-2.8-5-.9-4.9 1.6zM91.5 134.4c.1.2 1.3.7 1.3.7.9.3 1.6-.2 2.2-.9.8-.9 0-2.4-1.3-3.1-2-1.2-3.5 1.8-2.2 3.3zM80.6 103c.1.3 1.2 1.4 1.2 1.5 1 .7 2 .5 3 0 1.3-.6 1-2.7 0-4-1.6-2.3-4.8.3-4.2 2.5zM115.7 60.5l1.4.5c1 .1 1.6-.5 2-1.2.8-1-.3-2.4-1.6-3-2.2-.8-3.2 2.4-1.8 3.7zM31.8 20.7l.6 2.3c.6 1.4 2 1.6 3.3 1.6 2 0 2.8-2.8 2.3-4.8-.8-3.6-5.9-2-6.2 1zM90.4 148.8c0 .2 1.4 1.5 1.4 1.5 1.1.7 2.2.4 3.3-.2 1.5-.9 1-3.3-.3-4.7-2.1-2.4-5.4.9-4.4 3.4zM106 151.8c0 .3.8 1.4.8 1.4.7.8 1.6.6 2.5.4 1.2-.4 1.2-2.3.5-3.6-1.2-2.1-4.2-.2-3.9 1.8zM38.1 34.7l1.2 1c.8.6 1.6.3 2.3-.2 1.1-.6.6-2.4-.3-3.4-1.7-1.7-4 .9-3.2 2.6zM134.2 137c.3.4 2.5 1.2 2.6 1.2 1.7.5 2.8-.6 3.8-1.8 1.5-1.7-.3-4.4-2.6-5.6-3.7-2-6.2 3.8-3.8 6.3zM59.3 50.9c.1.2 1.1.8 1.1.8.8.4 1.4 0 2-.5 1-.7.3-2.2-.6-3-1.6-1.2-3.3 1.2-2.5 2.7zM102.3 101c.2.2 1.8.5 1.8.5 1.2 0 1.9-.8 2.4-1.7.8-1.4-.8-3-2.4-3.4-2.8-.8-3.7 3.3-1.8 4.6zM118.3 157.2c.3.3 2.6 1.2 2.6 1.2 1.8.4 3-.7 4-2 1.4-1.8-.5-4.5-2.8-5.6-3.9-2-6.3 3.9-3.8 6.4zM57.9 21.6c0 .2 1 1 1 1 .8.5 1.5.2 2.3-.2 1-.6.5-2.3-.4-3.2-1.5-1.6-3.7.8-3 2.4zM76 51l.9 1.2c.6.8 1.5.6 2.3.3 1.1-.4 1.1-2.1.4-3.3-1.1-2-3.9 0-3.5 1.8zM119.3 16c.2.2 1.6.6 1.6.6 1 .3 1.8-.4 2.4-1.2 1-1.1-.3-2.8-1.7-3.4-2.4-1.2-3.9 2.4-2.3 4zM.2 71.9C.2 72 1.5 73 1.5 73c.9.6 1.8.2 2.6-.4 1.2-.7.6-2.7-.5-3.7-1.8-1.8-4.4 1-3.4 3zM104 49.1h1.3c.9 0 1.2-.7 1.4-1.5.4-1-1-2-2.2-2-2-.2-2.1 2.9-.6 3.5zM32.2 97.6c.3.2 2.7.4 2.7.4 1.8 0 2.7-1.4 3.3-2.8 1-2.2-1.6-4.3-4.1-4.7-4.1-.8-5 5.4-2 7.1zM14 110.8c.1.3 1.4 1.7 1.4 1.7 1 .9 2.3.6 3.4 0 1.7-.6 1.3-3.3.2-4.9-2-2.6-5.8.5-5 3.2zM6 57c.2.2 1.6.5 1.6.5 1 0 1.7-.7 2.2-1.5.7-1.2-.6-2.7-2.1-3.1C5.2 52 4.3 55.8 6 57zM143.9 69c0 .2.9 1 .9 1 .6.6 1.5.5 2.2.1 1-.5.8-2.1 0-3.2-1.2-1.7-3.6.4-3.1 2zM141.2 115.2c.2.2 1.6.6 1.6.6 1.1.2 1.8-.5 2.4-1.3.9-1.2-.5-2.8-2-3.4-2.4-1-3.7 2.7-2 4.1zM145 54.1c0 .3.8 1.5.8 1.5.6.8 1.6.7 2.5.5 1.4-.3 1.4-2.4.8-3.7-1.2-2.3-4.5-.3-4.2 1.7zM54.4 38.3c.1.3 1.7 1.4 1.8 1.4 1.2.6 2.3 0 3.3-.7 1.5-1.1.6-3.6-1-5C56 32 53 36 54.4 38.4zM17.8 31.6c0 .3 1 1.9 1 2 1 1 2.1.8 3.3.5 1.8-.5 1.8-3 .9-4.8-1.5-2.9-5.6-.3-5.2 2.3zM39.8 76l.8 1c.6.7 1.3.5 2 .3 1.1-.4 1-2 .4-3-1-1.9-3.6 0-3.2 1.6zM123 126.8c.2.1 2-.1 2-.1 1.2-.3 1.6-1.4 1.9-2.5.3-1.7-1.8-2.8-3.6-2.7-3.1 0-2.8 4.5-.4 5.3zM100.6 61.7l.7 1.3c.7.7 1.5.6 2.4.4 1.2-.3 1.2-2.1.5-3.3-1-2-4-.3-3.6 1.6zM133 97.2c-.1.3.1 2 .1 2 .4 1.2 1.4 1.6 2.6 1.8 1.6.2 2.6-1.9 2.5-3.7-.1-3-4.5-2.4-5.2-.1zM133.8 47.7l.3 1.5c.3.8 1 1 1.9 1 1.2.1 1.8-1.5 1.6-2.7-.3-2.2-3.5-1.5-3.8.2zM63.6 98.6l.5 1.5c.4.9 1.2 1 2 1 1.4 0 1.8-1.8 1.5-3-.5-2.3-3.7-1.4-4 .5zM25.3 47c.1.2 1.4.8 1.4.8 1 .4 1.7-.2 2.4-.8 1-1 0-2.7-1.2-3.5-2.1-1.4-4 1.9-2.6 3.5zM40 134.2c0 .3 1.6 1.5 1.7 1.5 1.2.8 2.4.2 3.5-.5 1.6-1 .8-3.6-.7-5-2.5-2.5-5.8 1.4-4.6 4zM95.3 11.8c.2.2 2.1.3 2.2.3 1.4-.1 2-1.2 2.5-2.4.6-1.7-1.5-3.3-3.4-3.6-3.4-.5-3.8 4.5-1.3 5.7zM111.7 90.2c.2.3 2.2.7 2.2.7 1.4.2 2.3-.7 3.1-1.8 1.1-1.6-.8-3.7-2.7-4.4-3.3-1.3-4.8 3.6-2.6 5.5zM39.2 148.2l1.5.7c1 .2 1.8-.5 2.3-1.2.9-1.1-.3-2.7-1.7-3.3-2.3-1-3.6 2.4-2.1 3.8zM88 62.4l1 1.2c.7.6 1.6.4 2.4 0 1.1-.4.8-2.2 0-3.3-1.3-1.8-3.9.3-3.3 2.1zM63.7 159.3l1.6.8c1.2.4 2-.2 2.7-1 1-1.2 0-3-1.5-4-2.4-1.3-4.3 2.4-2.8 4.2zM120.8 47.3c.3.2 2.7.5 2.7.5 1.7 0 2.7-1.2 3.4-2.5 1-2-1.4-4.2-3.7-4.9-4-1-5.2 5-2.4 6.9zM70 111.5c-.1.2.1 1.3.1 1.3.3.8 1 1 1.8 1.1 1 .1 1.7-1.3 1.6-2.5-.2-2-3.2-1.5-3.6 0zM4.1 88.5c.4.1 2.8-.2 2.9-.2 1.7-.3 2.3-1.9 2.7-3.4.5-2.3-2.5-4-5-4-4.3 0-3.9 6.4-.6 7.6zM63.7 126.4c.2.3 2 1.4 2.1 1.4 1.5.7 2.7 0 3.8-1 1.6-1.3.3-4-1.5-5.5-3-2.3-6.2 2.5-4.4 5.1zM54.7 85.3l1.9 1c1.2.5 2.2-.2 3-1 1.3-1.3 0-3.5-1.5-4.5-2.8-1.7-5 2.4-3.4 4.5zM90 39c.3.3 2.2 1.2 2.2 1.2 1.4.4 2.5-.4 3.5-1.3 1.4-1.4 0-4-1.9-5-3.1-2-5.6 2.7-3.7 5.1zM127 81c-.2.3.3 2.3.3 2.3.4 1.4 1.7 1.7 3 1.9 2 .2 3-2.3 2.8-4.4-.3-3.5-5.5-2.7-6.2.1zM11.5 97.5c0 .3 1.4 1.5 1.5 1.5 1 .8 2.1.3 3.1-.2 1.5-.9.9-3.2-.3-4.6-2.1-2.3-5.3 1-4.3 3.3zM52.5 147.7l.4 2.3c.6 1.4 1.9 1.7 3.2 1.8 2 .1 3-2.5 2.6-4.6-.5-3.5-5.7-2.4-6.2.5zM47.2 99.2l.4 1.8c.4 1.2 1.4 1.5 2.5 1.6 1.6.2 2.4-2 2.2-3.6-.4-2.8-4.5-2.1-5 .2zM93.6 112.3c0 .3 1.1 1.7 1.1 1.8 1 1 2 .7 3.2.4 1.7-.5 1.6-3 .6-4.5-1.5-2.8-5.4-.2-5 2.3zM76 86.6l1.2 1c.8.5 1.5.1 2.2-.3 1-.7.6-2.3-.3-3.3-1.7-1.5-3.8 1-3 2.6zM119 101.8l.6 2.4c.5 1.5 2 1.8 3.3 1.9 2 .1 3-2.7 2.7-4.9-.6-3.7-6-2.4-6.6.6zM21.2 84.5c.3.2 2 .5 2 .5 1.2 0 2-.8 2.4-1.8.8-1.5-.9-3.1-2.6-3.6-3-.8-3.8 3.5-1.8 5zM71.3 4.8c0 .3 1.5 1.6 1.5 1.7 1.2.8 2.4.5 3.6-.2 1.7-.8 1.1-3.5-.2-5-2.3-2.7-6 .8-5 3.5zM128.4 27l1 .9c.6.4 1.3.2 2-.1 1-.5.6-2.1-.2-3-1.3-1.5-3.4.6-2.8 2.1zM51.1 119.7h1.4c.8 0 1.2-.6 1.4-1.3.4-1-.9-2-2-2.1-2-.4-2.3 2.6-.8 3.4zM105.7 76.8c.2.2 2.3 1 2.3 1 1.5.2 2.5-.7 3.4-1.8 1.3-1.6-.4-4-2.4-5-3.4-1.6-5.5 3.5-3.3 5.8zM77.7 72.5c0 .2.9 1.5.9 1.5.7.8 1.7.7 2.6.4 1.5-.3 1.5-2.4.8-3.8-1.3-2.4-4.6-.3-4.3 1.9zM107.6 6.2c0 .2.8 1 .8 1 .7.6 1.4.3 2 0 1-.4.8-2 0-2.9-1.2-1.6-3.4.4-2.8 2zM82.9 17.8c0 .2.6 1 .6 1 .5.7 1.3.6 2 .4 1-.3 1-1.8.4-2.8-.9-1.7-3.3-.2-3 1.4zM14.8 65.2l.4 1.9c.5 1 1.5 1.3 2.6 1.4 1.6 0 2.3-2.1 2-3.8-.5-2.9-4.7-1.8-5 .5zM71.7 32.6A12 12 0 0073 35c1.1 1.4 2.7 1.2 4.3.8 2.2-.6 2.3-3.9 1.1-6.1-2-3.8-7.3-.6-6.8 2.9zM41.9 50.8c0 .3 1.1 1.8 1.1 1.8 1 1 2.1.8 3.2.5 1.7-.5 1.7-3 .7-4.6-1.6-2.8-5.5-.2-5 2.3zM109.2 32.8h1.7c1 0 1.5-.9 1.9-1.8.5-1.3-1.2-2.5-2.7-2.7-2.6-.3-2.8 3.5-.9 4.5zM138.9 39.2c.1.4 1.8 2.1 1.8 2.2 1.4 1.1 3 .7 4.5 0 2.1-1 1.5-4.3 0-6.3-2.7-3.4-7.4.7-6.3 4.1zM120.4 142.7c0 .2 1.3 1 1.3 1 .9.5 1.7.1 2.5-.4 1-.9.4-2.7-.7-3.7-1.9-1.7-4.1 1.3-3.1 3zM91.2 86.2c0 .3 1.3 2.3 1.3 2.4 1 1.3 2.6 1.2 4 .9 2.3-.5 2.4-3.7 1.4-6-1.7-3.7-7-.7-6.7 2.7zM64.3 66.7c0 .3 1.4 2 1.4 2 1 1 2.3.8 3.6.3 1.9-.6 1.7-3.4.6-5.2-2-3.1-6.3 0-5.6 3zM23.5 132H25c.9-.2 1.3-1 1.5-1.7.3-1.2-1.1-2.1-2.4-2.2-2.3-.2-2.3 3-.6 3.8z"/></g><defs><clipPath id="clip0"><path fill="#fff" transform="translate(0 .3)" d="M0 0h152v163H0z"/></clipPath></defs></svg>