<svg width="72" height="98" fill="none" xmlns="http://www.w3.org/2000/svg"><path d="M72 36.05c0 19.909-36 61.283-36 61.283S0 55.96 0 36.05C0 16.14 16.118 0 36 0s36 16.14 36 36.05z" fill="#3521C1"/><g clip-path="url(#clip0)"><path d="M39.6 41.444h-.707v1.316h-.28v-1.576h1.269v1.576H39.6v-1.316zm.922 1.316v-1.574c.088 0 .34-.005.452-.005.467 0 .616.247.616.505 0 .269-.202.51-.582.51-.048 0-.138 0-.207-.007v.568h-.28v.003zm.282-1.316v.484c.066.008.132.01.196.01.165 0 .295-.078.295-.255 0-.163-.1-.244-.292-.244-.059 0-.125.002-.2.005zm2.009-.285c.473 0 .829.321.829.813 0 .474-.356.814-.83.814-.472 0-.826-.321-.826-.814 0-.458.338-.813.827-.813zm0 1.366c.335 0 .534-.242.534-.553 0-.326-.234-.552-.534-.552-.306 0-.532.226-.532.552 0 .314.234.553.532.553zm1.1-.025h.17c.067-.082.218-.414.245-1l.015-.316h.986V42.5h.216v.54h-.26v-.282h-1.112v.281h-.26v-.54zm.478 0h.665V41.44h-.439l-.024.274c-.032.408-.146.716-.202.785zm2.302-.109c-.109.24-.234.366-.43.366a.395.395 0 01-.218-.063l.098-.234c.042.029.072.04.117.04.074 0 .125-.043.157-.111l.02-.056-.7-1.152h.316l.52.879.38-.88h.282l-.542 1.211zm.991-1.207h.28v.747l.627-.747h.337l-.656.734.696.842h-.354l-.65-.813v.813h-.28v-1.576zm1.518 0h1.31v.26h-.515v1.316h-.28v-1.316h-.515v-.26zM34.55 31.326l.866-1.263c.43-.624.875-1.269 1.303-1.911 1.193-1.793 1.956-3.238 2.476-4.685.335-.93.415-1.711.248-2.39-.136-.548-.457-.927-.885-1.042-.505-.137-1.103.113-1.688.705a9.664 9.664 0 00-1.536 2.035c-.85 1.505-1.515 3.208-2.028 5.206a56.04 56.04 0 00-.558 2.463c-.085.411-.173.822-.263 1.232a.851.851 0 01-.117.285c-.59.837-1.395 1.884-2.395 3.116-1.969 2.324-3.678 4.087-5.379 5.548-1.462 1.256-2.227 1.89-3.7 2.63-1.456.731-2.792.726-3.762-.016-.458-.353-1.412-1.5-.745-3.788.418-1.423 2.012-2.142 1.518-2.924-.494-.779-3.968.28-5.424 4.201-1.111 2.993-.147 5.09 1.063 6.301.757.758 4.071 2.424 9.344-1.837 4.76-3.846 8.38-8.933 9.055-10.244l.109-.208-.011.155c-.098 1.282-.306 3.946.478 5.904.293.73.747 1.608 1.677 1.927.428.147.952.247 1.579-.119.484-.281.797-.629.989-1.09.053-.126.21-.507-.13-.684a1.23 1.23 0 00-.389-.113c-.085-.013-.175-.018-.26-.024-.125-.008-.242-.013-.35-.042-.724-.195-1.683-.903-1.691-4.769-.003-1.292.14-2.664.441-4.196.032-.113.093-.258.165-.363zm.438-3.322c.184-.573.372-1.166.582-1.742.36-.984.76-1.969 1.106-2.803.1-.242.242-.48.38-.71.043-.072.085-.143.125-.214.053-.09.125-.187.218-.282.106-.113.183-.152.223-.152.005 0 .01 0 .016.002.035.01.061.074.074.166.064.45-.109.94-.308 1.4-.77 1.8-1.751 3.464-2.551 4.749.048-.137.093-.277.135-.413zm23.997 2.624c-1.106-.208-.226 2.306-3.713 4.09a5.544 5.544 0 01-3.349.54c-1.493-.227-2.243-1.203-2.243-1.203.043-.116.189-.332.25-.46.082-.177.17-.356.213-.511.164-.6.172-1.095.023-1.611-.12-.413-.465-.666-.818-.6a.646.646 0 00-.191.07c-.617.345-1.066 1.09-1.175 1.946-.056.434-.048.858.026 1.292a.852.852 0 01-.002.235l-.003.015-.008.016c-.383.634-.85 1.36-1.43 1.924-.194.187-.451.41-.733.463a.808.808 0 01-.178.01c-.25-.018-.39-.118-.383-.576.003-.118.019-.242.035-.36.074-.524.263-1.056.574-1.622.175-.318.37-.623.574-.902l.018-.042.04-.05c.306-.39.614-.777.925-1.164.439-.55.938-1.174 1.406-1.782 1.281-1.663 2.12-3.021 2.721-4.406.378-.866.503-1.61.388-2.271-.074-.421-.257-.745-.531-.932a1.039 1.039 0 00-.787-.153c-.327.06-.675.25-1.034.566a9.078 9.078 0 00-1.618 1.853c-.928 1.408-1.685 3.032-2.315 4.964-.26.798-.486 1.608-.704 2.395-.112.403-.223.806-.34 1.206-.006.016-.229.779-.232.779-.018.04-.034.079-.058.129l-.04.09c-.228.357-.502.781-.608.918-.482.624-1.08 1.403-1.797 1.853a1.046 1.046 0 01-.33.137c-.14.026-.26.005-.353-.066-.122-.09-.197-.26-.218-.49a2.547 2.547 0 01.056-.863c.109-.395.236-.784.364-1.163.021-.069.045-.134.069-.203.056-.163.114-.331.16-.5.087-.334-.046-.671-.306-.784-.282-.121-.617.063-.89.49-.112.176-.245.423-.386.684-.117.22-.242.447-.359.645-.417.702-.914 1.505-1.55 2.121-.193.19-.45.41-.733.463-.058.01-.12.013-.178.01-.25-.018-.39-.118-.382-.576.002-.118.018-.242.034-.36.075-.524.263-1.056.574-1.622.861-1.56 1.834-2.424 2.982-2.64.043-.008.088-.015.133-.02.45-.064.962-.061 1.326.428.064.087.138.124.218.108.061-.01.125-.052.194-.126.13-.137.558-1.04.359-1.769-.117-.424-.417-.71-.893-.85-.51-.147-1.61-.171-3.285 1.348-1.183 1.073-2.336 2.874-2.942 4.585-.3.85-.396 1.571-.292 2.203.095.579.297.976.6 1.187a.921.921 0 00.535.163 1.395 1.395 0 00.51-.103c.741-.281 1.424-.876 2.091-1.821.032-.045.067-.076.107-.113.01-.01.024-.021.034-.032l.027-.029.008.032c.005.018.01.037.018.058a.447.447 0 01.032.152c-.002.39.085.727.266.998.303.458.728.626 1.302.519.133-.024.274-.064.43-.122.612-.22 1.242-.684 1.928-1.42.164-.177.33-.375.473-.57l.037-.047.013.1.008.074c.096.576.298.976.6 1.187.213.147.471.195.76.142.094-.018.19-.045.285-.081.728-.277 1.568-.909 2.3-1.732.276-.314.823-1.206 1.352-2.043.34.334 2.07 2.1 4.773 2.166 2.036.05 4.25-.847 5.209-2.05 1.637-2.045 1.103-4.193.027-4.514zm-11.612-.524c.088-.218.173-.437.258-.655l.005-.013c.19-.482.383-.98.598-1.464.362-.824.766-1.653 1.111-2.356a4.44 4.44 0 01.378-.605l.013-.018c.035-.05.07-.103.106-.153.056-.084.133-.168.224-.253a.555.555 0 01.225-.137.135.135 0 01.104.021c.045.035.074.111.082.219.032.432-.154.866-.358 1.269-.814 1.6-1.818 3.045-2.602 4.124a.464.464 0 01-.061.063l-.038.037-.063-.029.018-.05z" fill="#fff"/></g><defs><clipPath id="clip0"><path fill="#fff" transform="translate(12 20)" d="M0 0h48v28H0z"/></clipPath></defs></svg>